<svg id="icon-star-empty" xmlns="http://www.w3.org/2000/svg" viewBox="0 0 240 240">
    <title>icon star empty</title>
    <path d="M223.2,83.7l-62.8-9.2l-28.1-56.9c-5-10.1-19.6-10.3-24.7,0L79.6,74.5l-62.8,9.2C5.5,85.3,1,99.2,9.2,107.1l45.4,44.3L43.9,214c-1.9,11.3,10,19.8,19.9,14.5l56.2-29.5l56.2,29.5c10,5.2,21.9-3.2,19.9-14.5l-10.7-62.6l45.4-44.3C239,99.2,234.5,85.3,223.2,83.7L223.2,83.7z M170.6,146.6l12,69.6L120,183.4l-62.6,32.9l12-69.6L18.8,97.2l69.9-10.1L120,23.7l31.3,63.4l69.9,10.1L170.6,146.6L170.6,146.6z"></path>
</svg>