<svg id="icon-vk" xmlns="http://www.w3.org/2000/svg" viewBox="0 0 240 240">
    <title>icon vk</title>
    <path d="M229.8,60.9c1.6-5.3,0-9.3-7.6-9.3H197c-6.4,0-9.4,3.4-10.9,7.1c0,0-12.8,31.2-30.9,51.5c-5.8,5.8-8.5,7.7-11.7,7.7c-1.6,0-4-1.9-4-7.2V60.9c0-6.4-1.8-9.3-7.1-9.3H92.8c-4,0-6.4,3-6.4,5.8c0,6.1,9.1,7.5,10,24.6v37.1c0,8.1-1.5,9.6-4.7,9.6c-8.5,0-29.3-31.3-41.6-67.2c-2.5-7-4.9-9.8-11.4-9.8H13.6c-7.2,0-8.6,3.4-8.6,7.1c0,6.7,8.5,39.8,39.8,83.5c20.8,29.8,50.1,46,76.7,46c16,0,18-3.6,18-9.8c0-28.5-1.5-31.2,6.6-31.2c3.7,0,10.1,1.9,25.1,16.3c17.1,17.1,19.9,24.7,29.5,24.7h25.1c7.2,0,10.8-3.6,8.7-10.7c-4.8-14.9-37.1-45.6-38.6-47.6c-3.7-4.8-2.6-6.9,0-11.2C195.9,118.8,226.6,75.6,229.8,60.9L229.8,60.9z"></path>
</svg>