<svg id="icon-sign-out" xmlns="http://www.w3.org/2000/svg" viewBox="0 0 240 240">
    <title>icon sign out</title>
    <path d="M26.6,33.8h59.3c3,0,5.4,2.4,5.4,5.4v3.6c0,3-2.4,5.4-5.4,5.4H26.6c-4,0-7.2,3.2-7.2,7.2v129.3c0,4,3.2,7.2,7.2,7.2h59.3c3,0,5.4,2.4,5.4,5.4v3.6c0,3-2.4,5.4-5.4,5.4H26.6c-11.9,0-21.6-9.7-21.6-21.6V55.3C5,43.4,14.7,33.8,26.6,33.8z M151.9,42.5l-3.2,3.2c-2.1,2.1-2.1,5.5,0,7.6l59.3,59H82.2c-3,0-5.4,2.4-5.4,5.4v4.5c0,3,2.4,5.4,5.4,5.4H208l-59.2,59c-2.1,2.1-2.1,5.5,0,7.6l3.2,3.2c2.1,2.1,5.5,2.1,7.6,0l73.9-73.7c2.1-2.1,2.1-5.5,0-7.6l-73.9-73.7C157.4,40.4,154,40.4,151.9,42.5z"></path>
</svg>