<svg id="icon-nomute" xmlns="http://www.w3.org/2000/svg" viewBox="0 0 240 240">
    <title>icon nomute</title>
    <path d="M224.4,120c0,36.5-19.3,68.7-48.7,86.6c-2.7,1.6-6.3,0.8-8-1.9c-1.6-2.7-0.8-6.3,1.9-8c25.9-15.8,43-44.3,43-76.7s-17.2-60.9-43-76.7c-2.7-1.6-3.6-5.3-1.9-8c1.6-2.7,5.3-3.6,8-1.9C205.1,51.2,224.4,83.5,224.4,120z M189.7,120c0-24-12.7-45.1-32-56.9c-2.7-1.6-6.3-0.8-8,1.9c-1.6,2.7-0.8,6.3,1.9,8c15.9,9.7,26.4,27.2,26.4,47s-10.5,37.3-26.4,47c-2.7,1.6-3.6,5.3-1.9,8c1.6,2.7,5.3,3.6,8,1.9C176.9,165.1,189.7,144,189.7,120z M139.5,92.8c-2.7-1.6-6.3-0.8-8,1.9c-1.6,2.7-0.8,6.3,1.9,8c6.1,3.7,9.7,10.2,9.7,17.3s-3.6,13.6-9.7,17.3c-2.7,1.6-3.6,5.3-1.9,8c1.6,2.7,5.3,3.6,8,1.9c9.5-5.8,15.3-16.1,15.3-27.2S149.1,98.7,139.5,92.8z M108.4,59.1v121.9c0,7.8-9.4,11.6-14.9,6.2l-32.2-32.2h-37c-4.8,0-8.7-3.9-8.7-8.7V93.9c0-4.8,3.9-8.7,8.7-8.7h37.1L93.6,53C99,47.5,108.4,51.3,108.4,59.1z M96.8,66.1L68.6,94.2c-1.6,1.6-3.8,2.5-6.2,2.5H27.2v46.4h35.3c2.3,0,4.5,0.9,6.2,2.5l28.2,28.2L96.8,66.1L96.8,66.1z"></path>
</svg>