<svg id="icon-sign-up" xmlns="http://www.w3.org/2000/svg" viewBox="0 0 240 240">
	<title>icon sign up</title>
	<path d="M232.1,108.5h-31.6V76.9c0-1.6-1.3-2.9-2.9-2.9h-5.8c-1.6,0-2.9,1.3-2.9,2.9v31.6h-31.6c-1.6,0-2.9,1.3-2.9,2.9v5.8c0,1.6,1.3,2.9,2.9,2.9H189v31.6c0,1.6,1.3,2.9,2.9,2.9h5.8c1.6,0,2.9-1.3,2.9-2.9V120h31.6c1.6,0,2.9-1.3,2.9-2.9v-5.8C235,109.8,233.7,108.5,232.1,108.5z M117.7,131.5c-10.3,0-15.3,5.8-32.2,5.8s-21.9-5.8-32.2-5.8C26.6,131.5,5,153.1,5,179.8v14.9c0,9.5,7.7,17.2,17.2,17.2h126.5c9.5,0,17.2-7.7,17.2-17.2v-14.9C166,153.1,144.4,131.5,117.7,131.5z M154.5,194.8c0,3.2-2.6,5.8-5.8,5.8H22.2c-3.2,0-5.8-2.6-5.8-5.8v-14.9c0-20.3,16.5-36.8,36.8-36.8c7,0,14.1,5.8,32.2,5.8c18.1,0,25.2-5.8,32.2-5.8c20.3,0,36.8,16.5,36.8,36.8V194.8z M85.5,120c25.4,0,46-20.6,46-46s-20.6-46-46-46s-46,20.6-46,46S60.1,120,85.5,120z M85.5,39.5c19,0,34.5,15.5,34.5,34.5s-15.5,34.5-34.5,34.5S51,93,51,74S66.5,39.5,85.5,39.5z"></path>
</svg>