<svg id="icon-search" xmlns="http://www.w3.org/2000/svg" viewBox="0 0 240 240">
    <title>icon search</title>
    <path d="M233.4,221.3l-57.9-57.9c-1-1-2.4-1.6-3.8-1.6H167c15.4-16.7,24.8-38.9,24.8-63.4C191.9,46.8,150,5,98.4,5S5,46.8,5,98.4s41.8,93.4,93.4,93.4c24.5,0,46.7-9.4,63.4-24.8v4.6c0,1.4,0.6,2.8,1.6,3.8l57.9,57.9c2.1,2.1,5.5,2.1,7.6,0l4.4-4.4C235.5,226.9,235.5,223.4,233.4,221.3z M98.4,177.5c-43.7,0-79.1-35.4-79.1-79.1s35.4-79.1,79.1-79.1s79.1,35.4,79.1,79.1S142.1,177.5,98.4,177.5z"></path>
</svg>