<svg id="icon-tags" xmlns="http://www.w3.org/2000/svg" viewBox="0 0 240 240">
    <title>icon tags</title>
    <path d="M229.9,133.6l-73.4,73.4c-6.7,6.7-17.7,6.7-24.4,0l-0.6-0.6l8.1-8.1l0.6,0.6c2.2,2.2,5.9,2.2,8.1,0l73.4-73.4c2.2-2.2,2.2-5.9,0-8.1l-76.1-76.1c-1.1-1.1-2.5-1.7-4.1-1.7h-7L123.1,28h18.5c4.6,0,9,1.8,12.2,5.1l76.1,76.1C236.7,115.9,236.7,126.9,229.9,133.6z M95.6,39.5H22.3c-3.2,0-5.8,2.6-5.8,5.8v73.4c0,1.5,0.6,3,1.7,4.1l76.1,76.1c2.2,2.2,5.9,2.2,8.1,0l73.4-73.4c2.2-2.2,2.2-5.9,0-8.1L99.7,41.2C98.6,40.1,97.1,39.5,95.6,39.5 M95.6,28c4.6,0,9,1.8,12.2,5.1l76.1,76.1c6.7,6.7,6.7,17.7,0,24.4l-73.4,73.4c-6.7,6.7-17.7,6.7-24.4,0l-76.1-76.1c-3.2-3.2-5.1-7.6-5.1-12.2V45.2C5,35.7,12.7,28,22.3,28H95.6z M56.8,72.6c-4,0-7.2,3.2-7.2,7.2c0,4,3.2,7.2,7.2,7.2s7.2-3.2,7.2-7.2C63.9,75.8,60.7,72.6,56.8,72.6M56.8,62.5c9.5,0,17.3,7.7,17.3,17.3S66.3,97,56.8,97s-17.3-7.7-17.3-17.3S47.2,62.5,56.8,62.5z"></path>
</svg>