<svg id="icon-networks" xmlns="http://www.w3.org/2000/svg" viewBox="0 0 240 240">
    <title>icon networks</title>
    <path d="M46.1,169.3c13.6,0,24.6,11.1,24.6,24.6c0,13.6-11.1,24.6-24.6,24.6s-24.6-11.1-24.6-24.6C21.4,180.3,32.5,169.3,46.1,169.3M46.1,152.9C23.4,152.9,5,171.2,5,193.9S23.4,235,46.1,235s41.1-18.4,41.1-41.1S68.8,152.9,46.1,152.9z M235,228.6C231.7,106.5,133.3,8.3,11.4,5C7.9,4.9,5,7.7,5,11.2v4.1c0,3.3,2.6,6.1,6,6.2c113.4,3.1,204.5,94.4,207.6,207.6c0.1,3.3,2.8,6,6.2,6h4.1C232.3,235,235.1,232.1,235,228.6L235,228.6z M160.9,228.6C157.7,147.4,92.6,82.3,11.4,79.1C7.9,78.9,5,81.7,5,85.2v4.1c0,3.3,2.6,6,5.9,6.2c72.5,3,130.6,61.1,133.6,133.6c0.1,3.3,2.8,5.9,6.2,5.9h4.1C158.3,235,161.1,232.1,160.9,228.6L160.9,228.6z"></path>
</svg>