<svg id="icon-toprated" xmlns="http://www.w3.org/2000/svg" viewBox="0 0 240 240">
	<title>icon toprated</title>
	<path d="M152.9,73.2l-20-2.9l-9-18.2c-1.6-3.2-6.3-3.3-7.9,0l-9,18.2l-20,2.9c-3.6,0.5-5,5-2.4,7.5l14.5,14.1l-3.4,20 c-0.6,3.6,3.2,6.3,6.4,4.6l17.9-9.4l17.9,9.4c3.2,1.7,7-1,6.4-4.6l-3.4-20l14.5-14.1C158,78.2,156.5,73.8,152.9,73.2L152.9,73.2z M128.9,91l2.1,12.2L120,97.4l-11,5.7l2.1-12.2l-8.9-8.6l12.3-1.8l5.5-11.1l5.5,11.1l12.3,1.8L128.9,91L128.9,91z M183.9,43.3V22.6 c0-2.6-2.2-4.8-4.8-4.8H60.9c-2.6,0-4.8,2.2-4.8,4.8v20.8H9.8c-2.6,0-4.8,2.2-4.8,4.8v24.6c0,24.8,27.2,53.7,64.2,59.1 c11.7,24.2,29.4,36.1,44.4,38.7v38.9H79.3c-5.8,0-10.4,4.7-10.4,10.4c0,1.3,1.1,2.4,2.4,2.4h97.4c1.3,0,2.4-1,2.4-2.4 c0-5.8-4.6-10.4-10.4-10.4h-34.3v-38.9c15.1-2.6,32.7-14.5,44.4-38.7c37-5.5,64.2-34.4,64.2-59.1V48.1c0-2.6-2.2-4.8-4.8-4.8H183.9z M17.8,72.7V56.1h38.3v9.6c0,20.7,2.8,37.9,7.4,52C36.1,110.6,17.8,88.9,17.8,72.7z M120,158.3c-28.8,0-51.1-41.5-51.1-92.6V30.6 h102.2v35.1C171.1,116.8,148.8,158.3,120,158.3z M222.2,72.7c0,16.1-18.4,37.9-45.7,45c4.6-14.1,7.4-31.3,7.4-52v-9.6h38.3V72.7z"></path>
</svg>