<svg id="icon-sign-in" xmlns="http://www.w3.org/2000/svg" viewBox="0 0 240 240">
    <title>icon sign in</title>
    <path d="M87.7,42.5l73.9,73.7c2.1,2.1,2.1,5.5,0,7.6l-73.9,73.7c-2.1,2.1-5.5,2.1-7.6,0l-3.2-3.2c-2.1-2.1-2.1-5.5,0-7.6l59.3-59H10.4c-3,0-5.4-2.4-5.4-5.4v-4.5c0-3,2.4-5.4,5.4-5.4h125.7l-59.3-59c-2.1-2.1-2.1-5.5,0-7.6l3.2-3.2C82.1,40.4,85.5,40.4,87.7,42.5z M235,184.7V55.3c0-11.9-9.7-21.6-21.6-21.6h-59.3c-3,0-5.4,2.4-5.4,5.4v3.6c0,3,2.4,5.4,5.4,5.4h59.3c4,0,7.2,3.2,7.2,7.2v129.4c0,4-3.2,7.2-7.2,7.2h-59.3c-3,0-5.4,2.4-5.4,5.4v3.6c0,3,2.4,5.4,5.4,5.4h59.3C225.3,206.2,235,196.6,235,184.7z"></path>
</svg>