<svg id="icon-share" xmlns="http://www.w3.org/2000/svg" viewBox="0 0 240 240">
    <title>icon share</title>
    <path d="M177.5,148.8c-10.2,0-19.5,3.5-26.9,9.4l-46-28.8c1.4-6.2,1.4-12.6,0-18.7l46-28.8c7.4,5.9,16.7,9.4,26.9,9.4c23.8,0,43.1-19.3,43.1-43.1S201.3,5,177.5,5s-43.1,19.3-43.1,43.1c0,3.2,0.4,6.3,1,9.4l-46,28.8c-7.4-5.9-16.7-9.4-26.9-9.4c-23.8,0-43.1,19.3-43.1,43.1s19.3,43.1,43.1,43.1c10.2,0,19.5-3.5,26.9-9.4l46,28.8c-0.7,3.1-1,6.2-1,9.4c0,23.8,19.3,43.1,43.1,43.1s43.1-19.3,43.1-43.1S201.3,148.8,177.5,148.8z"></path>
</svg>