<svg id="icon-tw" xmlns="http://www.w3.org/2000/svg" viewBox="0 0 240 240">
    <title>icon tw</title>
    <path d="M211.4,73.2c0.1,2,0.1,4.1,0.1,6.1c0,62.3-47.4,134.1-134.1,134.1c-26.7,0-51.5-7.7-72.4-21.2c3.8,0.4,7.4,0.6,11.4,0.6c22,0,42.3-7.4,58.5-20.1c-20.7-0.4-38.1-14-44.1-32.7c2.9,0.4,5.8,0.7,8.9,0.7c4.2,0,8.5-0.6,12.4-1.6c-21.6-4.4-37.8-23.4-37.8-46.3v-0.6c6.3,3.5,13.6,5.7,21.3,6c-12.7-8.5-21-22.9-21-39.3c0-8.8,2.3-16.8,6.4-23.8c23.2,28.6,58.1,47.3,97.2,49.3c-0.7-3.5-1.2-7.2-1.2-10.8c0-26,21-47.1,47.1-47.1c13.6,0,25.8,5.7,34.4,14.9c10.7-2,20.9-6,29.9-11.4c-3.5,10.9-10.9,20.1-20.7,26c9.5-1,18.7-3.6,27.1-7.3C228.6,58.1,220.6,66.4,211.4,73.2L211.4,73.2z"></path>
</svg>