<svg id="icon-friends" xmlns="http://www.w3.org/2000/svg" viewBox="0 0 240 240">
    <title>icon friends</title>
    <path d="M177.5,120c19,0,34.5-15.5,34.5-34.5S196.5,51,177.5,51S143,66.5,143,85.5S158.5,120,177.5,120z M177.5,62.5c12.7,0,23,10.3,23,23s-10.3,23-23,23s-23-10.3-23-23S164.8,62.5,177.5,62.5z M74,120c22.2,0,40.2-18,40.2-40.2S96.2,39.5,74,39.5s-40.2,18-40.2,40.2S51.8,120,74,120z M74,51c15.8,0,28.8,12.9,28.8,28.8S89.8,108.5,74,108.5S45.2,95.6,45.2,79.8S58.2,51,74,51zM102.8,127.2c-12,0-15,4.3-28.8,4.3s-16.8-4.3-28.8-4.3c-13,0-25.7,5.8-33.2,16.9c-4.5,6.6-7,14.6-7,23.1v16.1c0,9.5,7.7,17.2,17.2,17.2h103.5c9.5,0,17.2-7.7,17.2-17.2v-16.1c0-8.6-2.6-16.5-7-23.1C128.5,133,115.8,127.2,102.8,127.2L102.8,127.2z M131.5,183.2c0,3.2-2.6,5.8-5.8,5.8H22.2c-3.2,0-5.8-2.6-5.8-5.8v-16.1c0-6,1.8-11.8,5.1-16.7c5-7.4,13.8-11.8,23.6-11.8c9.8,0,13.4,4.3,28.8,4.3s19-4.3,28.8-4.3c9.8,0,18.7,4.4,23.6,11.8c3.3,4.9,5.1,10.7,5.1,16.7L131.5,183.2L131.5,183.2z M229.1,142c-6.2-9.2-16.8-14.1-27.6-14.1c-10,0-12.5,3.6-24,3.6s-14-3.6-24-3.6c-4.7,0-9.4,1.1-13.7,2.9c5.5,5.5,6.6,8.5,7.3,9.6c2-0.6,4.2-0.9,6.4-0.9c7.8,0,10.8,3.6,24,3.6s16.2-3.6,24-3.6c7.5,0,14.3,3.3,18.1,9c2.6,3.8,3.9,8.2,3.9,12.8v13.4c0,1.6-1.3,2.9-2.9,2.9h-66.2c0,6.4,0.1,8.1-0.6,11.5h66.7c7.9,0,14.4-6.4,14.4-14.4v-13.4C235,154.1,232.8,147.5,229.1,142z"></path>
</svg>