<svg id="icon-camera" xmlns="http://www.w3.org/2000/svg" viewBox="0 0 240 240">
    <title>icon camera</title>
    <path d="M120,188.3c-29.7,0-53.9-24.2-53.9-53.9S90.3,80.5,120,80.5s53.9,24.2,53.9,53.9S149.7,188.3,120,188.3z M120,94.8c-21.8,0-39.5,17.7-39.5,39.5s17.7,39.5,39.5,39.5s39.5-17.7,39.5-39.5S141.8,94.8,120,94.8z M105.6,134.4c0-7.9,6.5-14.4,14.4-14.4c4,0,7.2-3.2,7.2-7.2s-3.2-7.2-7.2-7.2c-15.9,0-28.8,12.9-28.8,28.8c0,4,3.2,7.2,7.2,7.2S105.6,138.3,105.6,134.4z M150.7,33.8c1.5,0,2.8,0.9,3.4,2.3l9.9,26.4h49.5c4,0,7.2,3.2,7.2,7.2v129.4c0,4-3.2,7.2-7.2,7.2H26.6c-4,0-7.2-3.2-7.2-7.2V69.7c0-4,3.2-7.2,7.2-7.2h49.5l9-24.1c1-2.8,3.7-4.7,6.7-4.7H150.7 M150.7,19.4H91.8c-9,0-17,5.6-20.2,14l-5.6,14.8H26.6C14.7,48.1,5,57.8,5,69.7v129.4c0,11.9,9.7,21.6,21.6,21.6h186.9c11.9,0,21.6-9.7,21.6-21.6V69.7c0-11.9-9.7-21.6-21.6-21.6h-39.5l-6.4-17.1C164.9,24,158.2,19.4,150.7,19.4L150.7,19.4z"></path>
</svg>