<svg id="icon-message" xmlns="http://www.w3.org/2000/svg" viewBox="0 0 240 240">
	<title>icon message</title>
	<path d="M213.4,33.8H26.6C14.7,33.8,5,43.4,5,55.3v129.4c0,11.9,9.7,21.6,21.6,21.6h186.9c11.9,0,21.6-9.7,21.6-21.6V55.3C235,43.4,225.3,33.8,213.4,33.8z M26.6,48.1h186.9c4,0,7.2,3.2,7.2,7.2v18.6c-9.8,8.3-23.9,19.8-67.7,54.5c-7.6,6-22.6,20.5-33,20.3c-10.4,0.2-25.4-14.3-33-20.3C43.3,93.7,29.2,82.2,19.4,73.9V55.3C19.4,51.4,22.6,48.1,26.6,48.1zM213.4,191.9H26.6c-4,0-7.2-3.2-7.2-7.2V92.6c10.2,8.4,26.4,21.4,58.7,47c9.2,7.4,25.5,23.6,41.9,23.5c16.4,0.1,32.5-15.9,41.9-23.5c32.3-25.7,48.5-38.6,58.7-47v92.1C220.6,188.6,217.4,191.9,213.4,191.9z"></path>
</svg>