<svg id="icon-comments" xmlns="http://www.w3.org/2000/svg" viewBox="0 0 240 240">
    <title>icon comments</title>
    <path d="M217.4,172c11-10.8,17.6-24.4,17.6-39.2c0-31.9-30.5-58.3-70.3-63c-12.5-23-42.1-39.2-76.6-39.2c-45.9,0-83,28.6-83,63.9c0,14.8,6.6,28.3,17.6,39.2c-6.1,12.3-14.9,21.8-15,21.9c-2.5,2.7-3.2,6.6-1.8,10c1.4,3.4,4.8,5.6,8.5,5.6c21.4,0,38.6-8.1,50-15.5c3.6,0.8,7.3,1.5,11.2,1.9c12.6,23,42.1,39.1,76.6,39.1c8.3,0,16.3-1,23.9-2.7c11.4,7.4,28.6,15.5,50,15.5c3.7,0,7-2.2,8.5-5.6c1.4-3.4,0.8-7.3-1.8-10C232.3,193.7,223.5,184.2,217.4,172L217.4,172z M61.8,141.9l-4.6,3c-8,5.2-20.2,11.3-35,13c3.5-4.5,8.1-11,11.8-18.5l4.2-8.3l-6.6-6.5c-6.3-6.2-13.8-16.4-13.8-30.1c0-28.2,31.5-51.1,70.3-51.1s70.3,22.9,70.3,51.1s-31.5,51.1-70.3,51.1c-7.1,0-14.1-0.8-21-2.4L61.8,141.9z M182.7,183.2l-4.6-3l-5.3,1.2c-6.9,1.6-13.9,2.4-21,2.4c-26,0-48.7-10.3-60.8-25.7c44.4-1.3,80-29.3,80-63.8c0-3.8-0.5-7.5-1.3-11.1c30.1,5.8,52.4,25.7,52.4,49.4c0,13.7-7.5,23.9-13.8,30.1l-6.6,6.5l4.1,8.3c3.8,7.5,8.3,14.1,11.8,18.5C202.9,194.5,190.7,188.4,182.7,183.2L182.7,183.2zM167.6,76.3c0,0.1,0,0.2,0.1,0.2C167.7,76.5,167.7,76.4,167.6,76.3z"></path>
</svg>