<svg id="icon-expand" xmlns="http://www.w3.org/2000/svg" viewBox="0 0 240 240">
    <title>icon expand</title>
    <path d="M5,81V17.3C5,10.5,10.5,5,17.3,5h63.6c3.4,0,6.1,2.8,6.1,6.1v4.1c0,3.5-2.8,6.1-6.1,6.1H21.5v59.5c0,3.4-2.8,6.1-6.1,6.1h-4.1C7.8,87.2,5,84.3,5,81z M159,5h63.6c6.8,0,12.3,5.5,12.3,12.3v63.6c0,3.4-2.8,6.1-6.1,6.1h-4c-3.4,0-6.1-2.8-6.1-6.1V21.5h-59.5c-3.4,0-6.1-2.8-6.1-6.1v-4.1C152.8,7.8,155.6,5,159,5z M235,159v63.6c0,6.8-5.5,12.3-12.3,12.3h-63.6c-3.4,0-6.1-2.8-6.1-6.1v-4c0-3.4,2.8-6.1,6.1-6.1h59.5v-59.5c0-3.4,2.8-6.1,6.1-6.1h4.1C232.2,152.8,235,155.6,235,159z M81,235H17.3C10.5,235,5,229.5,5,222.7v-63.6c0-3.4,2.8-6.1,6.1-6.1h4.1c3.5,0,6.1,2.8,6.1,6.1v59.5h59.5c3.4,0,6.1,2.8,6.1,6.1v4.1C87.2,232.2,84.3,235,81,235z"></path>
</svg>