<svg id="icon-plus-octagon" xmlns="http://www.w3.org/2000/svg" viewBox="0 0 240 240">
    <title>icon plus octagon</title>
    <path d="M167.4,11.4c-4-4-9.5-6.3-15.2-6.3H87.9c-5.7,0-11.2,2.3-15.2,6.3L11.3,72.6c-4,4-6.3,9.5-6.3,15.2v64.3c0,5.7,2.3,11.2,6.3,15.2l61.3,61.3c4,4,9.5,6.3,15.2,6.3h64.3c5.7,0,11.2-2.3,15.2-6.3l61.3-61.3c4-4,6.3-9.5,6.3-15.2V87.9c0-5.7-2.3-11.2-6.3-15.2L167.4,11.4z M220.6,152.1c0,1.9-0.8,3.7-2.1,5.1l-61.3,61.3c-1.3,1.3-3.1,2.1-5.1,2.1H87.9c-1.9,0-3.7-0.8-5.1-2.1l-61.3-61.3c-1.3-1.3-2.1-3.1-2.1-5.1V87.9c0-1.9,0.8-3.7,2.1-5.1l61.3-61.3c1.3-1.3,3.1-2.1,5.1-2.1h64.3c1.9,0,3.7,0.8,5.1,2.1l61.3,61.3c1.3,1.3,2.1,3.1,2.1,5.1V152.1z M177.5,117.3v5.4c0,3-2.4,5.4-5.4,5.4h-44v44c0,3-2.4,5.4-5.4,5.4h-5.4c-3,0-5.4-2.4-5.4-5.4v-44h-44c-3,0-5.4-2.4-5.4-5.4v-5.4c0-3,2.4-5.4,5.4-5.4h44v-44c0-3,2.4-5.4,5.4-5.4h5.4c3,0,5.4,2.4,5.4,5.4v44h44C175,111.9,177.5,114.3,177.5,117.3z"></path>
</svg>