<svg id="icon-tasks" xmlns="http://www.w3.org/2000/svg" viewBox="0 0 240 240">
    <title>icon tasks</title>
    <path d="M232.3,63.4H94c-1.5,0-2.7-1.2-2.7-2.7V49.9c0-1.5,1.2-2.7,2.7-2.7h138.3c1.5,0,2.7,1.2,2.7,2.7v10.8C235,62.2,233.8,63.4,232.3,63.4z M235,132.6v-10.8c0-1.5-1.2-2.7-2.7-2.7H94c-1.5,0-2.7,1.2-2.7,2.7v10.8c0,1.5,1.2,2.7,2.7,2.7h138.3C233.8,135.3,235,134.1,235,132.6z M235,204.4v-10.8c0-1.5-1.2-2.7-2.7-2.7H94c-1.5,0-2.7,1.2-2.7,2.7v10.8c0,1.5,1.2,2.7,2.7,2.7h138.3C233.8,207.1,235,205.9,235,204.4z M35.8,181.1c-8.9,0-16.2,7.2-16.2,16.2s7.2,16.2,16.2,16.2s16-7.2,16-16.2S44.7,181.1,35.8,181.1z M81.8,31.5l-3.3-3.3c-2.1-2.1-5.5-2.1-7.6,0L35.5,63.7L18.2,46.5c-2.1-2.1-5.5-2.1-7.6,0l-4,4c-2.1,2.1-2.1,5.5,0,7.6L31,82.5c2.1,2.1,5.5,2.1,7.6,0l0.1-0.1l43.1-43.2C83.9,37,83.9,33.6,81.8,31.5L81.8,31.5z M82,103.3l-3.3-3.3c-2.1-2.1-5.5-2.1-7.6,0l-35.4,35.6l-17.2-17.2c-2.1-2.1-5.5-2.1-7.6,0l-3.9,4c-2.1,2.1-2.1,5.5,0,7.6l24.4,24.4c2.1,2.1,5.5,2.1,7.6,0l-0.1-0.1L82,111C84.1,108.9,84.1,105.5,82,103.3L82,103.3z"></path>
</svg>