<svg id="icon-video-hd" xmlns="http://www.w3.org/2000/svg" viewBox="0 0 240 240">
	<title>icon video hd</title>
	<path d="M222.2,56.1c-2.5,0-5,0.7-7.3,2.3l-43.8,27.9V62.4c0-10.5-9.3-19.1-20.7-19.1H25.7C14.3,43.3,5,51.9,5,62.4v115.2c0,10.5,9.3,19.1,20.7,19.1h124.8c11.4,0,20.7-8.5,20.7-19.1v-23.9l43.8,27.9c2.3,1.6,4.8,2.3,7.3,2.3c6.6,0,12.8-5.2,12.8-12.6V68.7C235,61.3,228.8,56.1,222.2,56.1L222.2,56.1z M158.4,177.6c0,3.4-3.6,6.3-7.9,6.3H25.7c-4.3,0-7.9-2.9-7.9-6.3V62.4c0-3.4,3.6-6.3,7.9-6.3h124.8c4.3,0,7.9,2.9,7.9,6.3V177.6L158.4,177.6z M222.3,171.3l-0.5-0.5l-50.6-32.3v-37.1l51.1-32.5V171.3z"></path>
	<path d="M36.3,98.2h9.3v12H74v-12h9.3V144H74v-25.9H45.5V144h-9.3V98.2z"></path>
	<path d="M96.3,98.2h16.8c4.9,0,9.2,0.5,12.8,1.6s6.6,2.6,9,4.5s4.1,4.3,5.3,7.1c1.2,2.8,1.7,6,1.7,9.4c0,3.3-0.6,6.4-1.7,9.2c-1.2,2.8-2.9,5.3-5.3,7.3s-5.4,3.7-9,4.8s-7.9,1.7-12.8,1.7l-16.8,0V98.2z M115.4,136c2.8,0,5.2-0.4,7.3-1.1s3.8-1.7,5.2-3s2.4-2.9,3.1-4.7s1.1-3.9,1.1-6.2c0-2.2-0.4-4.3-1.1-6.1c-0.7-1.8-1.8-3.3-3.1-4.6s-3.1-2.2-5.2-2.9c-2.1-0.7-4.5-1-7.3-1h-9.8V136H115.4z"></path>
</svg>