<svg id="icon-tag" xmlns="http://www.w3.org/2000/svg" viewBox="0 0 240 240">
    <title>icon tag</title>
    <path d="M118.6,39.5H45.3c-3.2,0-5.8,2.6-5.8,5.8v73.4c0,1.5,0.6,3,1.7,4.1l76.1,76.1c2.2,2.2,5.9,2.2,8.1,0l73.4-73.4c2.2-2.2,2.2-5.9,0-8.1l-76.1-76.1C121.6,40.1,120.1,39.5,118.6,39.5 M118.6,28c4.6,0,9,1.8,12.2,5.1l76.1,76.1c6.7,6.7,6.7,17.7,0,24.4l-73.4,73.4c-6.7,6.7-17.7,6.7-24.4,0l-76.1-76.1c-3.2-3.2-5.1-7.6-5.1-12.2V45.2C28,35.7,35.7,28,45.3,28H118.6z M79.8,72.6c-4,0-7.2,3.2-7.2,7.2c0,4,3.2,7.2,7.2,7.2s7.2-3.2,7.2-7.2C86.9,75.8,83.7,72.6,79.8,72.6 M79.8,62.5c9.5,0,17.3,7.7,17.3,17.3S89.3,97,79.8,97s-17.3-7.7-17.3-17.3S70.2,62.5,79.8,62.5z"></path>
</svg>