<svg id="icon-bell" xmlns="http://www.w3.org/2000/svg" viewBox="0 0 240 240">
    <title>icon bell</title>
    <path d="M120,220.6c-7.9,0-14.4-6.5-14.4-14.4H91.3c0,15.9,12.9,28.8,28.8,28.8s28.8-12.9,28.8-28.8h-14.4C134.4,214.2,127.9,220.6,120,220.6z M214.1,155.4c-12.6-12-22.2-24.5-22.2-66.9c0-35.8-28.5-64.9-64.7-68.4v-7.9c0-4-3.2-7.2-7.2-7.2s-7.2,3.2-7.2,7.2v7.9c-36.2,3.5-64.7,32.7-64.7,68.4c0,42.4-9.6,54.9-22.2,66.9c-6.3,6-8.3,15-5.1,23c3.3,8.2,11.1,13.5,20.1,13.5h158.1c8.9,0,16.8-5.3,20.1-13.5C222.3,170.4,220.3,161.4,214.1,155.4z M199.1,177.5H40.9c-6.4,0-9.6-7.4-5.1-11.7c15.7-14.9,26.6-31.6,26.6-77.3c0-30.3,25.7-54.8,57.5-54.8c31.8,0,57.5,24.5,57.5,54.8c0,45.5,10.9,62.3,26.6,77.3C208.7,170.1,205.4,177.5,199.1,177.5z"></path>
</svg>