<svg id="icon-ins" xmlns="http://www.w3.org/2000/svg" viewBox="0 0 240 240">
    <title>icon ins</title>
    <path d="M120,61c-32.6,0-59,26.3-59,59s26.3,59,59,59s59-26.3,59-59S152.7,61,120,61z M120,158.3c-21.1,0-38.3-17.2-38.3-38.3S98.9,81.7,120,81.7s38.3,17.2,38.3,38.3S141.1,158.3,120,158.3L120,158.3z M195.1,58.6c0,7.6-6.2,13.8-13.8,13.8c-7.6,0-13.8-6.2-13.8-13.8s6.2-13.8,13.8-13.8C189,44.9,195.1,51,195.1,58.6z M234.2,72.6c-0.9-18.4-5.1-34.7-18.6-48.2C202.2,11,185.9,6.8,167.4,5.8c-19-1.1-75.9-1.1-94.9,0c-18.4,0.9-34.7,5.1-48.2,18.5S6.7,54.1,5.8,72.5c-1.1,19-1.1,75.9,0,94.9c0.9,18.4,5.1,34.7,18.6,48.2s29.8,17.7,48.2,18.6c19,1.1,75.9,1.1,94.9,0c18.4-0.9,34.7-5.1,48.2-18.6c13.4-13.4,17.7-29.8,18.6-48.2C235.3,148.4,235.3,91.6,234.2,72.6L234.2,72.6z M209.7,187.8c-4,10.1-11.8,17.8-21.9,21.9c-15.1,6-51.1,4.6-67.8,4.6s-52.7,1.3-67.8-4.6c-10.1-4-17.8-11.8-21.9-21.9c-6-15.1-4.6-51.1-4.6-67.8s-1.3-52.7,4.6-67.8c4-10.1,11.8-17.8,21.9-21.9c15.1-6,51.1-4.6,67.8-4.6s52.7-1.3,67.8,4.6c10.1,4,17.8,11.8,21.9,21.9c6,15.1,4.6,51.1,4.6,67.8S215.7,172.7,209.7,187.8z"></path>
</svg>