<svg id="icon-compress" xmlns="http://www.w3.org/2000/svg" viewBox="0 0 240 240">
    <title>icon compress</title>
    <path d="M228.9,87.2h-63.6c-6.8,0-12.3-5.5-12.3-12.3V11.1c0-3.5,2.8-6.1,6.1-6.1h4.1c3.4,0,6.1,2.8,6.1,6.1v59.5h59.5c3.4,0,6.1,2.8,6.1,6.1v4.1C235,84.3,232.2,87.2,228.9,87.2z M87.2,74.8V11.1C87.2,7.7,84.4,5,81,5h-4.1c-3.4,0-6.1,2.8-6.1,6.1v59.5H11.1c-3.5,0-6.1,2.8-6.1,6.1v4.1c0,3.4,2.8,6.1,6.1,6.1h63.6C81.7,87.2,87.2,81.7,87.2,74.8z M87.2,228.9v-63.6c0-6.8-5.5-12.3-12.3-12.3H11.1c-3.5,0-6.1,2.8-6.1,6.1v4.1c0,3.4,2.8,6.1,6.1,6.1h59.5v59.5c0,3.4,2.8,6.1,6.1,6.1h4.1C84.3,235,87.2,232.2,87.2,228.9z M169.3,228.9v-59.5h59.5c3.4,0,6.1-2.8,6.1-6.1v-4.1c0-3.4-2.8-6.1-6.1-6.1h-63.6c-6.8,0-12.3,5.5-12.3,12.3v63.6c0,3.4,2.8,6.1,6.1,6.1h4.1C166.5,235,169.3,232.2,169.3,228.9z"></path>
</svg>