<svg id="icon-video" xmlns="http://www.w3.org/2000/svg" viewBox="0 0 240 240">
    <title>icon video</title>
    <path d="M222.2,56.1c-2.5,0-5,0.7-7.3,2.3l-43.8,27.9V62.4c0-10.5-9.3-19.1-20.7-19.1H25.7C14.3,43.3,5,51.9,5,62.4v115.2c0,10.5,9.3,19.1,20.7,19.1h124.8c11.4,0,20.7-8.5,20.7-19.1v-23.9l43.8,27.9c2.3,1.6,4.8,2.3,7.3,2.3c6.6,0,12.8-5.2,12.8-12.6V68.7C235,61.3,228.8,56.1,222.2,56.1L222.2,56.1z M158.4,177.6c0,3.4-3.6,6.3-7.9,6.3H25.7c-4.3,0-7.9-2.9-7.9-6.3V62.4c0-3.4,3.6-6.3,7.9-6.3h124.8c4.3,0,7.9,2.9,7.9,6.3V177.6L158.4,177.6z M222.3,171.3l-0.5-0.5l-50.6-32.3v-37.1l51.1-32.5V171.3z"></path>
</svg>