<svg id="icon-move" xmlns="http://www.w3.org/2000/svg" viewBox="0 0 240 240">
	<title>icon move</title>
	<path d="M156.7,200.3l-32.9,33.1c-2.1,2.1-5.5,2.1-7.6,0l-32.9-33.1c-2.1-2.1-2.1-5.5,0-7.6l3.2-3.2c2.1-2.1,5.5-2.1,7.6,0l18.3,18.5h0.4v-80.8H32v0.4l18.5,18.3c2.1,2.1,2.1,5.5,0,7.6l-3.2,3.2c-2.1,2.1-5.5,2.1-7.6,0L6.6,123.8c-2.1-2.1-2.1-5.5,0-7.6l33.1-32.9c2.1-2.1,5.5-2.1,7.6,0l3.2,3.2c2.1,2.1,2.1,5.5,0,7.6L32,112.4v0.4h80.8V32h-0.4L94.1,50.5c-2.1,2.1-5.5,2.1-7.6,0l-3.2-3.2c-2.1-2.1-2.1-5.5,0-7.6l32.9-33.1c2.1-2.1,5.5-2.1,7.6,0l32.9,33.1c2.1,2.1,2.1,5.5,0,7.6l-3.2,3.2c-2.1,2.1-5.5,2.1-7.6,0L127.6,32h-0.4v80.8H208v-0.4l-18.5-18.3c-2.1-2.1-2.1-5.5,0-7.6l3.2-3.2c2.1-2.1,5.5-2.1,7.6,0l33.1,32.9c2.1,2.1,2.1,5.5,0,7.6l-33.1,32.9c-2.1,2.1-5.5,2.1-7.6,0l-3.2-3.2c-2.1-2.1-2.1-5.5,0-7.6l18.5-18.3v-0.4h-80.8V208h0.4l18.3-18.5c2.1-2.1,5.5-2.1,7.6,0l3.2,3.2C158.8,194.8,158.8,198.2,156.7,200.3z"></path>
</svg>