<svg id="icon-categories" xmlns="http://www.w3.org/2000/svg" viewBox="0 0 240 240">
	<title>icon categories</title>
	<path d="M220.4,148.8h-48l-83.6,83.8c-0.9,0.9-2,1.6-3,2.5h134.6c7.9,0,14.3-6.4,14.3-14.4v-57.5C234.8,155.2,228.4,148.8,220.4,148.8z M200.4,80.1l-40.6-40.7c-5.6-5.6-14.7-5.6-20.3,0l-33.9,34v118.5c0,1.3-0.3,2.6-0.4,3.9l95.2-95.4C206,94.8,206,85.7,200.4,80.1L200.4,80.1z M91.3,19.4C91.3,11.4,84.9,5,77,5H19.6C11.6,5,5.2,11.4,5.2,19.4v172.5c0,23.8,19.3,43.1,43,43.1s43-19.3,43-43.1V19.4z M48.3,202.7c-5.9,0-10.8-4.8-10.8-10.8c0-6,4.8-10.8,10.8-10.8S59,185.9,59,191.9C59,197.8,54.2,202.7,48.3,202.7z M62.6,120H33.9V91.2h28.7L62.6,120L62.6,120z M62.6,62.5H33.9V33.8h28.7L62.6,62.5L62.6,62.5z"></path>
</svg>