<svg id="icon-mute" xmlns="http://www.w3.org/2000/svg" viewBox="0 0 240 240">
    <title>icon mute</title>
    <path d="M226.8,211.6L6,37.5c-1.9-1.5-2.2-4.2-0.7-6.1l1.8-2.3c1.5-1.9,4.2-2.2,6.1-0.7L234,202.5c1.9,1.5,2.2,4.2,0.7,6.1l-1.8,2.3C231.4,212.7,228.7,213,226.8,211.6L226.8,211.6z M151.5,73.1c15.8,9.7,26.3,27.1,26.3,46.9c0,7.2-1.4,14.1-3.9,20.4l9.4,7.4c3.9-8.5,6.1-17.9,6.1-27.8c0-23.9-12.6-45-31.8-56.8c-2.7-1.7-6.3-0.8-7.9,1.9C147.9,67.9,148.8,71.4,151.5,73.1z M89.4,73.8l7.5-7.5v13.4l11.6,9.1V59.3c0-7.8-9.4-11.6-14.8-6.1L80.2,66.6L89.4,73.8L89.4,73.8z M169.6,43.5c25.8,15.8,42.9,44.2,42.9,76.5c0,15.3-3.9,29.8-10.7,42.4l9.2,7.3c8.3-14.7,13-31.7,13-49.7c0-36.3-19.2-68.5-48.5-86.4c-2.7-1.7-6.3-0.8-7.9,1.9C166,38.3,166.8,41.8,169.6,43.5L169.6,43.5z M133.4,102.7c4.8,3,8.1,7.7,9.3,13.1l11.6,9.2c0.3-1.6,0.4-3.3,0.4-5c0-11.2-5.7-21.3-15.2-27.1c-2.7-1.7-6.3-0.8-7.9,1.9C129.8,97.5,130.7,101.1,133.4,102.7L133.4,102.7z M179.8,189.2c-3.2,2.7-6.6,5.1-10.2,7.3c-2.7,1.7-3.6,5.2-1.9,7.9c1.7,2.7,5.2,3.6,7.9,1.9c4.7-2.9,9.2-6.2,13.5-9.8L179.8,189.2L179.8,189.2zM96.9,123.9v49.9l-28.1-28.1c-1.6-1.6-3.8-2.5-6.1-2.5H27.5V96.9h35.2L48,85.3H24.6c-4.8,0-8.7,3.9-8.7,8.7v52c0,4.8,3.9,8.7,8.7,8.7h36.9l32.1,32.1c5.4,5.4,14.8,1.6,14.8-6.1V133L96.9,123.9z M151.5,166.9c-2.7,1.7-3.6,5.2-1.9,7.9c1.7,2.7,5.2,3.6,7.9,1.9c1.2-0.7,2.4-1.5,3.5-2.3L151.5,166.9L151.5,166.9z"></path>
</svg>