<svg id="icon-trash" xmlns="http://www.w3.org/2000/svg" viewBox="0 0 240 240">
    <title>icon trash</title>
    <path d="M19.4,42.7V30.2c0-6,4.8-10.8,10.8-10.8h50.3l4.2-8.4c1.8-3.7,5.5-6,9.6-6h51.3c4.1,0,7.8,2.3,9.7,6l4.2,8.4h50.3c6,0,10.8,4.8,10.8,10.8v12.6c0,3-2.4,5.4-5.4,5.4H24.8C21.8,48.1,19.4,45.7,19.4,42.7z M205.9,68.2l-9.2,146.6c-0.7,11.4-10.2,20.2-21.5,20.2H64.8c-11.4,0-20.8-8.8-21.5-20.2L34.1,68.2c-0.2-3.1,2.3-5.7,5.4-5.7h161C203.6,62.5,206.1,65.1,205.9,68.2L205.9,68.2z"></path>
</svg>