<svg xmlns="http://www.w3.org/2000/svg" style="z-index: -99999; position: absolute; top: -99999px; left: -99999px; visibility: hidden; opacity: 0;"><symbol id="icon-bell" viewBox="0 0 240 240"> <title>icon bell</title> <path d="M120,220.6c-7.9,0-14.4-6.5-14.4-14.4H91.3c0,15.9,12.9,28.8,28.8,28.8s28.8-12.9,28.8-28.8h-14.4C134.4,214.2,127.9,220.6,120,220.6z M214.1,155.4c-12.6-12-22.2-24.5-22.2-66.9c0-35.8-28.5-64.9-64.7-68.4v-7.9c0-4-3.2-7.2-7.2-7.2s-7.2,3.2-7.2,7.2v7.9c-36.2,3.5-64.7,32.7-64.7,68.4c0,42.4-9.6,54.9-22.2,66.9c-6.3,6-8.3,15-5.1,23c3.3,8.2,11.1,13.5,20.1,13.5h158.1c8.9,0,16.8-5.3,20.1-13.5C222.3,170.4,220.3,161.4,214.1,155.4z M199.1,177.5H40.9c-6.4,0-9.6-7.4-5.1-11.7c15.7-14.9,26.6-31.6,26.6-77.3c0-30.3,25.7-54.8,57.5-54.8c31.8,0,57.5,24.5,57.5,54.8c0,45.5,10.9,62.3,26.6,77.3C208.7,170.1,205.4,177.5,199.1,177.5z"/> </symbol><symbol id="icon-bookmark" viewBox="0 0 240 240"> <title>icon bookmark</title> <path d="M184.7,5H55.3c-11.9,0-21.6,9.7-21.6,21.6V235l86.2-50.3l86.2,50.3V26.6C206.2,14.7,196.5,5,184.7,5z M191.8,210L120,168L48.2,210V26.6c0-4,3.2-7.2,7.2-7.2h129.3c4,0,7.2,3.2,7.2,7.2L191.8,210L191.8,210z"/> </symbol><symbol id="icon-camera" viewBox="0 0 240 240"> <title>icon camera</title> <path d="M120,188.3c-29.7,0-53.9-24.2-53.9-53.9S90.3,80.5,120,80.5s53.9,24.2,53.9,53.9S149.7,188.3,120,188.3z M120,94.8c-21.8,0-39.5,17.7-39.5,39.5s17.7,39.5,39.5,39.5s39.5-17.7,39.5-39.5S141.8,94.8,120,94.8z M105.6,134.4c0-7.9,6.5-14.4,14.4-14.4c4,0,7.2-3.2,7.2-7.2s-3.2-7.2-7.2-7.2c-15.9,0-28.8,12.9-28.8,28.8c0,4,3.2,7.2,7.2,7.2S105.6,138.3,105.6,134.4z M150.7,33.8c1.5,0,2.8,0.9,3.4,2.3l9.9,26.4h49.5c4,0,7.2,3.2,7.2,7.2v129.4c0,4-3.2,7.2-7.2,7.2H26.6c-4,0-7.2-3.2-7.2-7.2V69.7c0-4,3.2-7.2,7.2-7.2h49.5l9-24.1c1-2.8,3.7-4.7,6.7-4.7H150.7 M150.7,19.4H91.8c-9,0-17,5.6-20.2,14l-5.6,14.8H26.6C14.7,48.1,5,57.8,5,69.7v129.4c0,11.9,9.7,21.6,21.6,21.6h186.9c11.9,0,21.6-9.7,21.6-21.6V69.7c0-11.9-9.7-21.6-21.6-21.6h-39.5l-6.4-17.1C164.9,24,158.2,19.4,150.7,19.4L150.7,19.4z"/> </symbol><symbol id="icon-categories" viewBox="0 0 240 240"> <title>icon categories</title> <path d="M220.4,148.8h-48l-83.6,83.8c-0.9,0.9-2,1.6-3,2.5h134.6c7.9,0,14.3-6.4,14.3-14.4v-57.5C234.8,155.2,228.4,148.8,220.4,148.8z M200.4,80.1l-40.6-40.7c-5.6-5.6-14.7-5.6-20.3,0l-33.9,34v118.5c0,1.3-0.3,2.6-0.4,3.9l95.2-95.4C206,94.8,206,85.7,200.4,80.1L200.4,80.1z M91.3,19.4C91.3,11.4,84.9,5,77,5H19.6C11.6,5,5.2,11.4,5.2,19.4v172.5c0,23.8,19.3,43.1,43,43.1s43-19.3,43-43.1V19.4z M48.3,202.7c-5.9,0-10.8-4.8-10.8-10.8c0-6,4.8-10.8,10.8-10.8S59,185.9,59,191.9C59,197.8,54.2,202.7,48.3,202.7z M62.6,120H33.9V91.2h28.7L62.6,120L62.6,120z M62.6,62.5H33.9V33.8h28.7L62.6,62.5L62.6,62.5z"/> </symbol><symbol id="icon-chevron-down" viewBox="0 0 240 240"> <title>icon chevron down</title> <path d="M233.2,66.3l-10.3-10.3c-2.4-2.4-6.4-2.4-8.8,0L120,149.9L25.9,56.1c-2.4-2.4-6.4-2.4-8.8,0L6.8,66.3c-2.4,2.4-2.4,6.4,0,8.8l108.8,108.8c2.4,2.4,6.4,2.4,8.8,0L233.2,75.2C235.6,72.7,235.6,68.8,233.2,66.3L233.2,66.3z"/> </symbol><symbol id="icon-chevron-left" viewBox="0 0 240 240"> <title>icon chevron left</title> <path d="M173.7,233.2l10.3-10.3c2.4-2.4,2.4-6.4,0-8.8L90.1,120l93.8-94.1c2.4-2.4,2.4-6.4,0-8.8L173.7,6.8c-2.4-2.4-6.4-2.4-8.8,0L56.1,115.6c-2.4,2.4-2.4,6.4,0,8.8l108.7,108.8C167.3,235.6,171.2,235.6,173.7,233.2L173.7,233.2z"/> </symbol><symbol id="icon-chevron-right" viewBox="0 0 240 240"> <title>icon chevron right</title> <path d="M66.3,6.8L56.1,17.1c-2.4,2.4-2.4,6.4,0,8.8l93.9,94.1l-93.8,94.1c-2.4,2.4-2.4,6.4,0,8.8l10.2,10.3c2.4,2.4,6.4,2.4,8.8,0L184,124.3c2.4-2.4,2.4-6.4,0-8.8L75.2,6.8C72.7,4.3,68.8,4.3,66.3,6.8L66.3,6.8z"/> </symbol><symbol id="icon-chevron-up" viewBox="0 0 240 240"> <title>icon chevron up</title> <path d="M6.8,173.7l10.3,10.3c2.4,2.4,6.4,2.4,8.8,0L120,90.1l94.1,93.8c2.4,2.4,6.4,2.4,8.8,0l10.3-10.3c2.4-2.4,2.4-6.4,0-8.8L124.4,56.1c-2.4-2.4-6.4-2.4-8.8,0L6.8,164.8C4.4,167.3,4.4,171.2,6.8,173.7L6.8,173.7z"/> </symbol><symbol id="icon-close" viewBox="0 0 240 240"> <title>icon close</title> <path d="M231.5,221.4l-10.1,10.1c-2,2-5.1,2-7.1,0L8.5,25.7c-2-2-2-5.1,0-7.1L18.6,8.5c2-2,5.1-2,7.1,0l205.8,205.8C233.4,216.3,233.4,219.4,231.5,221.4z"/> <path d="M231.5,18.6L221.4,8.5c-2-2-5.1-2-7.1,0L8.5,214.3c-2,2-2,5.1,0,7.1l10.1,10.1c2,2,5.1,2,7.1,0L231.5,25.7C233.4,23.7,233.4,20.6,231.5,18.6z"/> </symbol><symbol id="icon-comments" viewBox="0 0 240 240"> <title>icon comments</title> <path d="M217.4,172c11-10.8,17.6-24.4,17.6-39.2c0-31.9-30.5-58.3-70.3-63c-12.5-23-42.1-39.2-76.6-39.2c-45.9,0-83,28.6-83,63.9c0,14.8,6.6,28.3,17.6,39.2c-6.1,12.3-14.9,21.8-15,21.9c-2.5,2.7-3.2,6.6-1.8,10c1.4,3.4,4.8,5.6,8.5,5.6c21.4,0,38.6-8.1,50-15.5c3.6,0.8,7.3,1.5,11.2,1.9c12.6,23,42.1,39.1,76.6,39.1c8.3,0,16.3-1,23.9-2.7c11.4,7.4,28.6,15.5,50,15.5c3.7,0,7-2.2,8.5-5.6c1.4-3.4,0.8-7.3-1.8-10C232.3,193.7,223.5,184.2,217.4,172L217.4,172z M61.8,141.9l-4.6,3c-8,5.2-20.2,11.3-35,13c3.5-4.5,8.1-11,11.8-18.5l4.2-8.3l-6.6-6.5c-6.3-6.2-13.8-16.4-13.8-30.1c0-28.2,31.5-51.1,70.3-51.1s70.3,22.9,70.3,51.1s-31.5,51.1-70.3,51.1c-7.1,0-14.1-0.8-21-2.4L61.8,141.9z M182.7,183.2l-4.6-3l-5.3,1.2c-6.9,1.6-13.9,2.4-21,2.4c-26,0-48.7-10.3-60.8-25.7c44.4-1.3,80-29.3,80-63.8c0-3.8-0.5-7.5-1.3-11.1c30.1,5.8,52.4,25.7,52.4,49.4c0,13.7-7.5,23.9-13.8,30.1l-6.6,6.5l4.1,8.3c3.8,7.5,8.3,14.1,11.8,18.5C202.9,194.5,190.7,188.4,182.7,183.2L182.7,183.2zM167.6,76.3c0,0.1,0,0.2,0.1,0.2C167.7,76.5,167.7,76.4,167.6,76.3z"/> </symbol><symbol id="icon-compress" viewBox="0 0 240 240"> <title>icon compress</title> <path d="M228.9,87.2h-63.6c-6.8,0-12.3-5.5-12.3-12.3V11.1c0-3.5,2.8-6.1,6.1-6.1h4.1c3.4,0,6.1,2.8,6.1,6.1v59.5h59.5c3.4,0,6.1,2.8,6.1,6.1v4.1C235,84.3,232.2,87.2,228.9,87.2z M87.2,74.8V11.1C87.2,7.7,84.4,5,81,5h-4.1c-3.4,0-6.1,2.8-6.1,6.1v59.5H11.1c-3.5,0-6.1,2.8-6.1,6.1v4.1c0,3.4,2.8,6.1,6.1,6.1h63.6C81.7,87.2,87.2,81.7,87.2,74.8z M87.2,228.9v-63.6c0-6.8-5.5-12.3-12.3-12.3H11.1c-3.5,0-6.1,2.8-6.1,6.1v4.1c0,3.4,2.8,6.1,6.1,6.1h59.5v59.5c0,3.4,2.8,6.1,6.1,6.1h4.1C84.3,235,87.2,232.2,87.2,228.9z M169.3,228.9v-59.5h59.5c3.4,0,6.1-2.8,6.1-6.1v-4.1c0-3.4-2.8-6.1-6.1-6.1h-63.6c-6.8,0-12.3,5.5-12.3,12.3v63.6c0,3.4,2.8,6.1,6.1,6.1h4.1C166.5,235,169.3,232.2,169.3,228.9z"/> </symbol><symbol id="icon-dash" viewBox="0 0 240 240"> <title>icon dash</title> <path d="M235,127.5v-15c0-2.8-2.2-5-5-5l-220,0c-2.8,0-5,2.2-5,5l0,15c0,2.8,2.2,5,5,5l220,0C232.8,132.5,235,130.3,235,127.5z"/> </symbol><symbol id="icon-edit" viewBox="0 0 240 240"> <title>icon edit</title> <path d="M140.3,49.8l49.9,49.9c2.1,2.1,2.1,5.5,0,7.6L68.2,229.3L17,234.9c-6.9,0.8-12.7-5-11.9-11.9l5.7-51.3L132.7,49.8C134.8,47.7,138.2,47.7,140.3,49.8z M228.7,38.3l-27-27c-8.4-8.4-22.1-8.4-30.5,0L150.4,32c-2.1,2.1-2.1,5.5,0,7.6l49.9,49.9c2.1,2.1,5.5,2.1,7.6,0l20.7-20.7C237.1,60.4,237.1,46.7,228.7,38.3z"/> </symbol><symbol id="icon-expand" viewBox="0 0 240 240"> <title>icon expand</title> <path d="M5,81V17.3C5,10.5,10.5,5,17.3,5h63.6c3.4,0,6.1,2.8,6.1,6.1v4.1c0,3.5-2.8,6.1-6.1,6.1H21.5v59.5c0,3.4-2.8,6.1-6.1,6.1h-4.1C7.8,87.2,5,84.3,5,81z M159,5h63.6c6.8,0,12.3,5.5,12.3,12.3v63.6c0,3.4-2.8,6.1-6.1,6.1h-4c-3.4,0-6.1-2.8-6.1-6.1V21.5h-59.5c-3.4,0-6.1-2.8-6.1-6.1v-4.1C152.8,7.8,155.6,5,159,5z M235,159v63.6c0,6.8-5.5,12.3-12.3,12.3h-63.6c-3.4,0-6.1-2.8-6.1-6.1v-4c0-3.4,2.8-6.1,6.1-6.1h59.5v-59.5c0-3.4,2.8-6.1,6.1-6.1h4.1C232.2,152.8,235,155.6,235,159z M81,235H17.3C10.5,235,5,229.5,5,222.7v-63.6c0-3.4,2.8-6.1,6.1-6.1h4.1c3.5,0,6.1,2.8,6.1,6.1v59.5h59.5c3.4,0,6.1,2.8,6.1,6.1v4.1C87.2,232.2,84.3,235,81,235z"/> </symbol><symbol id="icon-fb" viewBox="0 0 240 240"> <title>icon fb</title> <path d="M95.2,235V132.1H60.7V91.3h34.5V59c0-35,21.4-54,52.6-54c15,0,27.8,1.1,31.5,1.6v36.6h-21.7c-17,0-20.3,8.1-20.3,19.9v28.2h38.3l-5.3,40.9h-33.1V235"/> </symbol><symbol id="icon-filter" viewBox="0 0 240 240"> <title>icon filter</title> <path d="M220.6,5H19.4C6.6,5,0.2,20.5,9.2,29.5l82,82v83.9c0,4.1,1.8,8.1,4.9,10.8l28.7,25.1c9.2,8,23.8,1.7,23.8-10.8v-109l82-82C239.8,20.5,233.4,5,220.6,5z M134.4,105.6v115l-28.8-25.2v-89.8L19.4,19.4h201.3L134.4,105.6z"/> </symbol><symbol id="icon-flag-ru" viewBox="0 0 240 240"> <title>icon flag ru</title> <rect fill="#A6A6A6" x="5" y="49.2" width="230" height="141.5"/> <rect fill="#D52B1E" x="8.7" y="142.6" width="221.2" height="44.2"/> <rect fill="#0039A6" x="8.7" y="98.3" width="221.2" height="44.2"/> <rect fill="#FFFFFF" x="8.7" y="54" width="221.2" height="44.2"/> </symbol><symbol id="icon-friends" viewBox="0 0 240 240"> <title>icon friends</title> <path d="M177.5,120c19,0,34.5-15.5,34.5-34.5S196.5,51,177.5,51S143,66.5,143,85.5S158.5,120,177.5,120z M177.5,62.5c12.7,0,23,10.3,23,23s-10.3,23-23,23s-23-10.3-23-23S164.8,62.5,177.5,62.5z M74,120c22.2,0,40.2-18,40.2-40.2S96.2,39.5,74,39.5s-40.2,18-40.2,40.2S51.8,120,74,120z M74,51c15.8,0,28.8,12.9,28.8,28.8S89.8,108.5,74,108.5S45.2,95.6,45.2,79.8S58.2,51,74,51zM102.8,127.2c-12,0-15,4.3-28.8,4.3s-16.8-4.3-28.8-4.3c-13,0-25.7,5.8-33.2,16.9c-4.5,6.6-7,14.6-7,23.1v16.1c0,9.5,7.7,17.2,17.2,17.2h103.5c9.5,0,17.2-7.7,17.2-17.2v-16.1c0-8.6-2.6-16.5-7-23.1C128.5,133,115.8,127.2,102.8,127.2L102.8,127.2z M131.5,183.2c0,3.2-2.6,5.8-5.8,5.8H22.2c-3.2,0-5.8-2.6-5.8-5.8v-16.1c0-6,1.8-11.8,5.1-16.7c5-7.4,13.8-11.8,23.6-11.8c9.8,0,13.4,4.3,28.8,4.3s19-4.3,28.8-4.3c9.8,0,18.7,4.4,23.6,11.8c3.3,4.9,5.1,10.7,5.1,16.7L131.5,183.2L131.5,183.2z M229.1,142c-6.2-9.2-16.8-14.1-27.6-14.1c-10,0-12.5,3.6-24,3.6s-14-3.6-24-3.6c-4.7,0-9.4,1.1-13.7,2.9c5.5,5.5,6.6,8.5,7.3,9.6c2-0.6,4.2-0.9,6.4-0.9c7.8,0,10.8,3.6,24,3.6s16.2-3.6,24-3.6c7.5,0,14.3,3.3,18.1,9c2.6,3.8,3.9,8.2,3.9,12.8v13.4c0,1.6-1.3,2.9-2.9,2.9h-66.2c0,6.4,0.1,8.1-0.6,11.5h66.7c7.9,0,14.4-6.4,14.4-14.4v-13.4C235,154.1,232.8,147.5,229.1,142z"/> </symbol><symbol id="icon-full-chevron-down" viewBox="0 0 240 240"> <title>icon full chevron down</title> <path d="M124.5,175.9L234,68.3c1.2-1.1,1.3-2.6,0.3-3.8c-0.9-1.2-2.8-2-4.8-2H10.5c-2,0-3.9,0.8-4.9,2C5.2,65,5,65.6,5,66.2c0,0.7,0.3,1.5,1,2.1l109.5,107.6c1,1,2.7,1.6,4.5,1.6C121.8,177.5,123.5,176.9,124.5,175.9z"/> </symbol><symbol id="icon-full-chevron-left" viewBox="0 0 240 240"> <title>icon full chevron left</title> <path d="M64.1,124.5L171.7,234c1.1,1.2,2.6,1.3,3.8,0.3c1.2-0.9,2-2.8,2-4.8V10.5c0-2-0.8-3.9-2-4.9C175,5.2,174.4,5,173.8,5c-0.7,0-1.5,0.3-2.1,1L64.1,115.5c-1,1-1.6,2.7-1.6,4.5C62.5,121.8,63.1,123.5,64.1,124.5z"/> </symbol><symbol id="icon-full-chevron-right" viewBox="0 0 240 240"> <title>icon full chevron right</title> <path d="M175.9,115.5L68.3,6c-1.1-1.2-2.6-1.3-3.8-0.3c-1.2,0.9-2,2.8-2,4.8v219.1c0,2,0.8,3.9,2,4.9c0.5,0.4,1.1,0.6,1.7,0.6c0.7,0,1.5-0.3,2.1-1l107.6-109.5c1-1,1.6-2.7,1.6-4.5C177.5,118.2,176.9,116.5,175.9,115.5z"/> </symbol><symbol id="icon-full-chevron-up" viewBox="0 0 240 240"> <title>icon full chevron up</title> <path d="M115.5,64.1L6,171.7c-1.2,1.1-1.3,2.6-0.3,3.8c0.9,1.2,2.8,2,4.8,2h219.1c2,0,3.9-0.8,4.9-2c0.4-0.5,0.6-1.1,0.6-1.7c0-0.7-0.3-1.5-1-2.1L124.5,64.1c-1-1-2.7-1.6-4.5-1.6C118.2,62.5,116.5,63.1,115.5,64.1z"/> </symbol><symbol id="icon-ins" viewBox="0 0 240 240"> <title>icon ins</title> <path d="M120,61c-32.6,0-59,26.3-59,59s26.3,59,59,59s59-26.3,59-59S152.7,61,120,61z M120,158.3c-21.1,0-38.3-17.2-38.3-38.3S98.9,81.7,120,81.7s38.3,17.2,38.3,38.3S141.1,158.3,120,158.3L120,158.3z M195.1,58.6c0,7.6-6.2,13.8-13.8,13.8c-7.6,0-13.8-6.2-13.8-13.8s6.2-13.8,13.8-13.8C189,44.9,195.1,51,195.1,58.6z M234.2,72.6c-0.9-18.4-5.1-34.7-18.6-48.2C202.2,11,185.9,6.8,167.4,5.8c-19-1.1-75.9-1.1-94.9,0c-18.4,0.9-34.7,5.1-48.2,18.5S6.7,54.1,5.8,72.5c-1.1,19-1.1,75.9,0,94.9c0.9,18.4,5.1,34.7,18.6,48.2s29.8,17.7,48.2,18.6c19,1.1,75.9,1.1,94.9,0c18.4-0.9,34.7-5.1,48.2-18.6c13.4-13.4,17.7-29.8,18.6-48.2C235.3,148.4,235.3,91.6,234.2,72.6L234.2,72.6z M209.7,187.8c-4,10.1-11.8,17.8-21.9,21.9c-15.1,6-51.1,4.6-67.8,4.6s-52.7,1.3-67.8-4.6c-10.1-4-17.8-11.8-21.9-21.9c-6-15.1-4.6-51.1-4.6-67.8s-1.3-52.7,4.6-67.8c4-10.1,11.8-17.8,21.9-21.9c15.1-6,51.1-4.6,67.8-4.6s52.7-1.3,67.8,4.6c10.1,4,17.8,11.8,21.9,21.9c6,15.1,4.6,51.1,4.6,67.8S215.7,172.7,209.7,187.8z"/> </symbol><symbol id="icon-message" viewBox="0 0 240 240"> <title>icon message</title> <path d="M213.4,33.8H26.6C14.7,33.8,5,43.4,5,55.3v129.4c0,11.9,9.7,21.6,21.6,21.6h186.9c11.9,0,21.6-9.7,21.6-21.6V55.3C235,43.4,225.3,33.8,213.4,33.8z M26.6,48.1h186.9c4,0,7.2,3.2,7.2,7.2v18.6c-9.8,8.3-23.9,19.8-67.7,54.5c-7.6,6-22.6,20.5-33,20.3c-10.4,0.2-25.4-14.3-33-20.3C43.3,93.7,29.2,82.2,19.4,73.9V55.3C19.4,51.4,22.6,48.1,26.6,48.1zM213.4,191.9H26.6c-4,0-7.2-3.2-7.2-7.2V92.6c10.2,8.4,26.4,21.4,58.7,47c9.2,7.4,25.5,23.6,41.9,23.5c16.4,0.1,32.5-15.9,41.9-23.5c32.3-25.7,48.5-38.6,58.7-47v92.1C220.6,188.6,217.4,191.9,213.4,191.9z"/> </symbol><symbol id="icon-move" viewBox="0 0 240 240"> <title>icon move</title> <path d="M156.7,200.3l-32.9,33.1c-2.1,2.1-5.5,2.1-7.6,0l-32.9-33.1c-2.1-2.1-2.1-5.5,0-7.6l3.2-3.2c2.1-2.1,5.5-2.1,7.6,0l18.3,18.5h0.4v-80.8H32v0.4l18.5,18.3c2.1,2.1,2.1,5.5,0,7.6l-3.2,3.2c-2.1,2.1-5.5,2.1-7.6,0L6.6,123.8c-2.1-2.1-2.1-5.5,0-7.6l33.1-32.9c2.1-2.1,5.5-2.1,7.6,0l3.2,3.2c2.1,2.1,2.1,5.5,0,7.6L32,112.4v0.4h80.8V32h-0.4L94.1,50.5c-2.1,2.1-5.5,2.1-7.6,0l-3.2-3.2c-2.1-2.1-2.1-5.5,0-7.6l32.9-33.1c2.1-2.1,5.5-2.1,7.6,0l32.9,33.1c2.1,2.1,2.1,5.5,0,7.6l-3.2,3.2c-2.1,2.1-5.5,2.1-7.6,0L127.6,32h-0.4v80.8H208v-0.4l-18.5-18.3c-2.1-2.1-2.1-5.5,0-7.6l3.2-3.2c2.1-2.1,5.5-2.1,7.6,0l33.1,32.9c2.1,2.1,2.1,5.5,0,7.6l-33.1,32.9c-2.1,2.1-5.5,2.1-7.6,0l-3.2-3.2c-2.1-2.1-2.1-5.5,0-7.6l18.5-18.3v-0.4h-80.8V208h0.4l18.3-18.5c2.1-2.1,5.5-2.1,7.6,0l3.2,3.2C158.8,194.8,158.8,198.2,156.7,200.3z"/> </symbol><symbol id="icon-mute" viewBox="0 0 240 240"> <title>icon mute</title> <path d="M226.8,211.6L6,37.5c-1.9-1.5-2.2-4.2-0.7-6.1l1.8-2.3c1.5-1.9,4.2-2.2,6.1-0.7L234,202.5c1.9,1.5,2.2,4.2,0.7,6.1l-1.8,2.3C231.4,212.7,228.7,213,226.8,211.6L226.8,211.6z M151.5,73.1c15.8,9.7,26.3,27.1,26.3,46.9c0,7.2-1.4,14.1-3.9,20.4l9.4,7.4c3.9-8.5,6.1-17.9,6.1-27.8c0-23.9-12.6-45-31.8-56.8c-2.7-1.7-6.3-0.8-7.9,1.9C147.9,67.9,148.8,71.4,151.5,73.1z M89.4,73.8l7.5-7.5v13.4l11.6,9.1V59.3c0-7.8-9.4-11.6-14.8-6.1L80.2,66.6L89.4,73.8L89.4,73.8z M169.6,43.5c25.8,15.8,42.9,44.2,42.9,76.5c0,15.3-3.9,29.8-10.7,42.4l9.2,7.3c8.3-14.7,13-31.7,13-49.7c0-36.3-19.2-68.5-48.5-86.4c-2.7-1.7-6.3-0.8-7.9,1.9C166,38.3,166.8,41.8,169.6,43.5L169.6,43.5z M133.4,102.7c4.8,3,8.1,7.7,9.3,13.1l11.6,9.2c0.3-1.6,0.4-3.3,0.4-5c0-11.2-5.7-21.3-15.2-27.1c-2.7-1.7-6.3-0.8-7.9,1.9C129.8,97.5,130.7,101.1,133.4,102.7L133.4,102.7z M179.8,189.2c-3.2,2.7-6.6,5.1-10.2,7.3c-2.7,1.7-3.6,5.2-1.9,7.9c1.7,2.7,5.2,3.6,7.9,1.9c4.7-2.9,9.2-6.2,13.5-9.8L179.8,189.2L179.8,189.2zM96.9,123.9v49.9l-28.1-28.1c-1.6-1.6-3.8-2.5-6.1-2.5H27.5V96.9h35.2L48,85.3H24.6c-4.8,0-8.7,3.9-8.7,8.7v52c0,4.8,3.9,8.7,8.7,8.7h36.9l32.1,32.1c5.4,5.4,14.8,1.6,14.8-6.1V133L96.9,123.9z M151.5,166.9c-2.7,1.7-3.6,5.2-1.9,7.9c1.7,2.7,5.2,3.6,7.9,1.9c1.2-0.7,2.4-1.5,3.5-2.3L151.5,166.9L151.5,166.9z"/> </symbol><symbol id="icon-networks" viewBox="0 0 240 240"> <title>icon networks</title> <path d="M46.1,169.3c13.6,0,24.6,11.1,24.6,24.6c0,13.6-11.1,24.6-24.6,24.6s-24.6-11.1-24.6-24.6C21.4,180.3,32.5,169.3,46.1,169.3M46.1,152.9C23.4,152.9,5,171.2,5,193.9S23.4,235,46.1,235s41.1-18.4,41.1-41.1S68.8,152.9,46.1,152.9z M235,228.6C231.7,106.5,133.3,8.3,11.4,5C7.9,4.9,5,7.7,5,11.2v4.1c0,3.3,2.6,6.1,6,6.2c113.4,3.1,204.5,94.4,207.6,207.6c0.1,3.3,2.8,6,6.2,6h4.1C232.3,235,235.1,232.1,235,228.6L235,228.6z M160.9,228.6C157.7,147.4,92.6,82.3,11.4,79.1C7.9,78.9,5,81.7,5,85.2v4.1c0,3.3,2.6,6,5.9,6.2c72.5,3,130.6,61.1,133.6,133.6c0.1,3.3,2.8,5.9,6.2,5.9h4.1C158.3,235,161.1,232.1,160.9,228.6L160.9,228.6z"/> </symbol><symbol id="icon-nomute" viewBox="0 0 240 240"> <title>icon nomute</title> <path d="M224.4,120c0,36.5-19.3,68.7-48.7,86.6c-2.7,1.6-6.3,0.8-8-1.9c-1.6-2.7-0.8-6.3,1.9-8c25.9-15.8,43-44.3,43-76.7s-17.2-60.9-43-76.7c-2.7-1.6-3.6-5.3-1.9-8c1.6-2.7,5.3-3.6,8-1.9C205.1,51.2,224.4,83.5,224.4,120z M189.7,120c0-24-12.7-45.1-32-56.9c-2.7-1.6-6.3-0.8-8,1.9c-1.6,2.7-0.8,6.3,1.9,8c15.9,9.7,26.4,27.2,26.4,47s-10.5,37.3-26.4,47c-2.7,1.6-3.6,5.3-1.9,8c1.6,2.7,5.3,3.6,8,1.9C176.9,165.1,189.7,144,189.7,120z M139.5,92.8c-2.7-1.6-6.3-0.8-8,1.9c-1.6,2.7-0.8,6.3,1.9,8c6.1,3.7,9.7,10.2,9.7,17.3s-3.6,13.6-9.7,17.3c-2.7,1.6-3.6,5.3-1.9,8c1.6,2.7,5.3,3.6,8,1.9c9.5-5.8,15.3-16.1,15.3-27.2S149.1,98.7,139.5,92.8z M108.4,59.1v121.9c0,7.8-9.4,11.6-14.9,6.2l-32.2-32.2h-37c-4.8,0-8.7-3.9-8.7-8.7V93.9c0-4.8,3.9-8.7,8.7-8.7h37.1L93.6,53C99,47.5,108.4,51.3,108.4,59.1z M96.8,66.1L68.6,94.2c-1.6,1.6-3.8,2.5-6.2,2.5H27.2v46.4h35.3c2.3,0,4.5,0.9,6.2,2.5l28.2,28.2L96.8,66.1L96.8,66.1z"/> </symbol><symbol id="icon-ok" viewBox="0 0 240 240"> <title>icon ok</title> <path d="M218.5,34.8L73,180.3l-51.4-51.4c-2.4-2.4-6.4-2.4-8.8,0l-5.9,5.9c-2.4,2.4-2.4,6.4,0,8.8l61.7,61.7c2.4,2.4,6.4,2.4,8.8,0L233.2,49.5c2.4-2.4,2.4-6.4,0-8.8l-5.9-5.9C224.9,32.3,220.9,32.3,218.5,34.8L218.5,34.8z"/> </symbol><symbol id="icon-pause" viewBox="0 0 240 240"> <title>icon pause</title> <rect x="29.9" y="5" width="57.5" height="230"/> <rect x="152.6" y="5" width="57.5" height="230"/> </symbol><symbol id="icon-play" viewBox="0 0 240 240"> <title>icon play</title> <path d="M209.5,105.1L46.2,8.8C31.3,0,19.3,7,19.4,24.4l0.8,191.1c0.1,17.4,12.2,24.5,27.2,15.8l162.1-94.6C224.3,128,224.4,113.8,209.5,105.1z"/> </symbol><symbol id="icon-plus-octagon" viewBox="0 0 240 240"> <title>icon plus octagon</title> <path d="M167.4,11.4c-4-4-9.5-6.3-15.2-6.3H87.9c-5.7,0-11.2,2.3-15.2,6.3L11.3,72.6c-4,4-6.3,9.5-6.3,15.2v64.3c0,5.7,2.3,11.2,6.3,15.2l61.3,61.3c4,4,9.5,6.3,15.2,6.3h64.3c5.7,0,11.2-2.3,15.2-6.3l61.3-61.3c4-4,6.3-9.5,6.3-15.2V87.9c0-5.7-2.3-11.2-6.3-15.2L167.4,11.4z M220.6,152.1c0,1.9-0.8,3.7-2.1,5.1l-61.3,61.3c-1.3,1.3-3.1,2.1-5.1,2.1H87.9c-1.9,0-3.7-0.8-5.1-2.1l-61.3-61.3c-1.3-1.3-2.1-3.1-2.1-5.1V87.9c0-1.9,0.8-3.7,2.1-5.1l61.3-61.3c1.3-1.3,3.1-2.1,5.1-2.1h64.3c1.9,0,3.7,0.8,5.1,2.1l61.3,61.3c1.3,1.3,2.1,3.1,2.1,5.1V152.1z M177.5,117.3v5.4c0,3-2.4,5.4-5.4,5.4h-44v44c0,3-2.4,5.4-5.4,5.4h-5.4c-3,0-5.4-2.4-5.4-5.4v-44h-44c-3,0-5.4-2.4-5.4-5.4v-5.4c0-3,2.4-5.4,5.4-5.4h44v-44c0-3,2.4-5.4,5.4-5.4h5.4c3,0,5.4,2.4,5.4,5.4v44h44C175,111.9,177.5,114.3,177.5,117.3z"/> </symbol><symbol id="icon-popular" viewBox="0 0 240 240"> <title>icon popular</title> <path d="M208.5,79.9C173.9,18.4,72.3,5,72.3,5s46.9,51.2-13,91.7c-37.9,25.6-52.9,58.8-36.6,95C35,219.5,61.3,230.8,89.7,235c-13.5-25.6-3.1-56.8-1.9-60.1c26.5,40.1,76.5,0,51.4-43.5c32.9,7.1,37.8,64.3,12.6,99.9c37.3-11.7,62.2-41.2,69-67.5C227.9,136.3,222.4,104.5,208.5,79.9L208.5,79.9z"/> </symbol><symbol id="icon-search" viewBox="0 0 240 240"> <title>icon search</title> <path d="M233.4,221.3l-57.9-57.9c-1-1-2.4-1.6-3.8-1.6H167c15.4-16.7,24.8-38.9,24.8-63.4C191.9,46.8,150,5,98.4,5S5,46.8,5,98.4s41.8,93.4,93.4,93.4c24.5,0,46.7-9.4,63.4-24.8v4.6c0,1.4,0.6,2.8,1.6,3.8l57.9,57.9c2.1,2.1,5.5,2.1,7.6,0l4.4-4.4C235.5,226.9,235.5,223.4,233.4,221.3z M98.4,177.5c-43.7,0-79.1-35.4-79.1-79.1s35.4-79.1,79.1-79.1s79.1,35.4,79.1,79.1S142.1,177.5,98.4,177.5z"/> </symbol><symbol id="icon-share" viewBox="0 0 240 240"> <title>icon share</title> <path d="M177.5,148.8c-10.2,0-19.5,3.5-26.9,9.4l-46-28.8c1.4-6.2,1.4-12.6,0-18.7l46-28.8c7.4,5.9,16.7,9.4,26.9,9.4c23.8,0,43.1-19.3,43.1-43.1S201.3,5,177.5,5s-43.1,19.3-43.1,43.1c0,3.2,0.4,6.3,1,9.4l-46,28.8c-7.4-5.9-16.7-9.4-26.9-9.4c-23.8,0-43.1,19.3-43.1,43.1s19.3,43.1,43.1,43.1c10.2,0,19.5-3.5,26.9-9.4l46,28.8c-0.7,3.1-1,6.2-1,9.4c0,23.8,19.3,43.1,43.1,43.1s43.1-19.3,43.1-43.1S201.3,148.8,177.5,148.8z"/> </symbol><symbol id="icon-sign-in" viewBox="0 0 240 240"> <title>icon sign in</title> <path d="M87.7,42.5l73.9,73.7c2.1,2.1,2.1,5.5,0,7.6l-73.9,73.7c-2.1,2.1-5.5,2.1-7.6,0l-3.2-3.2c-2.1-2.1-2.1-5.5,0-7.6l59.3-59H10.4c-3,0-5.4-2.4-5.4-5.4v-4.5c0-3,2.4-5.4,5.4-5.4h125.7l-59.3-59c-2.1-2.1-2.1-5.5,0-7.6l3.2-3.2C82.1,40.4,85.5,40.4,87.7,42.5z M235,184.7V55.3c0-11.9-9.7-21.6-21.6-21.6h-59.3c-3,0-5.4,2.4-5.4,5.4v3.6c0,3,2.4,5.4,5.4,5.4h59.3c4,0,7.2,3.2,7.2,7.2v129.4c0,4-3.2,7.2-7.2,7.2h-59.3c-3,0-5.4,2.4-5.4,5.4v3.6c0,3,2.4,5.4,5.4,5.4h59.3C225.3,206.2,235,196.6,235,184.7z"/> </symbol><symbol id="icon-sign-out" viewBox="0 0 240 240"> <title>icon sign out</title> <path d="M26.6,33.8h59.3c3,0,5.4,2.4,5.4,5.4v3.6c0,3-2.4,5.4-5.4,5.4H26.6c-4,0-7.2,3.2-7.2,7.2v129.3c0,4,3.2,7.2,7.2,7.2h59.3c3,0,5.4,2.4,5.4,5.4v3.6c0,3-2.4,5.4-5.4,5.4H26.6c-11.9,0-21.6-9.7-21.6-21.6V55.3C5,43.4,14.7,33.8,26.6,33.8z M151.9,42.5l-3.2,3.2c-2.1,2.1-2.1,5.5,0,7.6l59.3,59H82.2c-3,0-5.4,2.4-5.4,5.4v4.5c0,3,2.4,5.4,5.4,5.4H208l-59.2,59c-2.1,2.1-2.1,5.5,0,7.6l3.2,3.2c2.1,2.1,5.5,2.1,7.6,0l73.9-73.7c2.1-2.1,2.1-5.5,0-7.6l-73.9-73.7C157.4,40.4,154,40.4,151.9,42.5z"/> </symbol><symbol id="icon-sign-up" viewBox="0 0 240 240"> <title>icon sign up</title> <path d="M232.1,108.5h-31.6V76.9c0-1.6-1.3-2.9-2.9-2.9h-5.8c-1.6,0-2.9,1.3-2.9,2.9v31.6h-31.6c-1.6,0-2.9,1.3-2.9,2.9v5.8c0,1.6,1.3,2.9,2.9,2.9H189v31.6c0,1.6,1.3,2.9,2.9,2.9h5.8c1.6,0,2.9-1.3,2.9-2.9V120h31.6c1.6,0,2.9-1.3,2.9-2.9v-5.8C235,109.8,233.7,108.5,232.1,108.5z M117.7,131.5c-10.3,0-15.3,5.8-32.2,5.8s-21.9-5.8-32.2-5.8C26.6,131.5,5,153.1,5,179.8v14.9c0,9.5,7.7,17.2,17.2,17.2h126.5c9.5,0,17.2-7.7,17.2-17.2v-14.9C166,153.1,144.4,131.5,117.7,131.5z M154.5,194.8c0,3.2-2.6,5.8-5.8,5.8H22.2c-3.2,0-5.8-2.6-5.8-5.8v-14.9c0-20.3,16.5-36.8,36.8-36.8c7,0,14.1,5.8,32.2,5.8c18.1,0,25.2-5.8,32.2-5.8c20.3,0,36.8,16.5,36.8,36.8V194.8z M85.5,120c25.4,0,46-20.6,46-46s-20.6-46-46-46s-46,20.6-46,46S60.1,120,85.5,120z M85.5,39.5c19,0,34.5,15.5,34.5,34.5s-15.5,34.5-34.5,34.5S51,93,51,74S66.5,39.5,85.5,39.5z"/> </symbol><symbol id="icon-star-empty" viewBox="0 0 240 240"> <title>icon star empty</title> <path d="M223.2,83.7l-62.8-9.2l-28.1-56.9c-5-10.1-19.6-10.3-24.7,0L79.6,74.5l-62.8,9.2C5.5,85.3,1,99.2,9.2,107.1l45.4,44.3L43.9,214c-1.9,11.3,10,19.8,19.9,14.5l56.2-29.5l56.2,29.5c10,5.2,21.9-3.2,19.9-14.5l-10.7-62.6l45.4-44.3C239,99.2,234.5,85.3,223.2,83.7L223.2,83.7z M170.6,146.6l12,69.6L120,183.4l-62.6,32.9l12-69.6L18.8,97.2l69.9-10.1L120,23.7l31.3,63.4l69.9,10.1L170.6,146.6L170.6,146.6z"/> </symbol><symbol id="icon-star" viewBox="0 0 240 240"> <title>icon star</title> <path d="M107.7,17.6L79.6,74.5l-62.8,9.2C5.5,85.3,1,99.2,9.2,107.1l45.4,44.3L43.9,214c-1.9,11.3,10,19.8,19.9,14.5l56.2-29.5l56.2,29.5c10,5.2,21.9-3.2,19.9-14.5l-10.7-62.6l45.4-44.3c8.2-8,3.7-21.8-7.6-23.5l-62.8-9.2l-28.1-56.9C127.3,7.4,112.7,7.3,107.7,17.6L107.7,17.6z"/> </symbol><symbol id="icon-stepback" viewBox="0 0 240 240"> <title>icon stepback</title> <path d="M44,235h4.1c3.4,0,6.2-2.8,6.2-6.2v-97.7c0.6,0.6,1.1,1.2,1.8,1.7l119.1,98.3c10.6,8.8,27,1.4,27-12.6V21.5c0-14.1-16.4-21.5-27-12.6L56.1,107.7c-0.7,0.6-1.2,1.1-1.8,1.7V11.2c0-3.4-2.8-6.2-6.2-6.2H44c-3.4,0-6.2,2.8-6.2,6.2v217.7C37.9,232.2,40.6,235,44,235z M64.8,120.3l120.8-98.8l0.1-0.1l0.1-0.1v197.1l-0.1-0.1l-0.1-0.1L64.8,120.3L64.8,120.3z"/> </symbol><symbol id="icon-stepfor" viewBox="0 0 240 240"> <title>icon stepfor</title> <path d="M196,5h-4.1c-3.4,0-6.2,2.8-6.2,6.2v97.7c-0.6-0.6-1.1-1.2-1.8-1.7L64.8,8.9c-10.6-8.8-27-1.5-27,12.6v197.1c0,14.1,16.4,21.5,27,12.6l119.1-98.9c0.7-0.6,1.2-1.1,1.8-1.7v98.3c0,3.4,2.8,6.2,6.2,6.2h4.1c3.4,0,6.2-2.8,6.2-6.2V11.2C202.1,7.8,199.4,5,196,5z M175.2,119.7L54.4,218.4l-0.1,0.1l-0.1,0.1V21.4l0.1,0.1l0.1,0.1L175.2,119.7z"/> </symbol><symbol id="icon-tag" viewBox="0 0 240 240"> <title>icon tag</title> <path d="M118.6,39.5H45.3c-3.2,0-5.8,2.6-5.8,5.8v73.4c0,1.5,0.6,3,1.7,4.1l76.1,76.1c2.2,2.2,5.9,2.2,8.1,0l73.4-73.4c2.2-2.2,2.2-5.9,0-8.1l-76.1-76.1C121.6,40.1,120.1,39.5,118.6,39.5 M118.6,28c4.6,0,9,1.8,12.2,5.1l76.1,76.1c6.7,6.7,6.7,17.7,0,24.4l-73.4,73.4c-6.7,6.7-17.7,6.7-24.4,0l-76.1-76.1c-3.2-3.2-5.1-7.6-5.1-12.2V45.2C28,35.7,35.7,28,45.3,28H118.6z M79.8,72.6c-4,0-7.2,3.2-7.2,7.2c0,4,3.2,7.2,7.2,7.2s7.2-3.2,7.2-7.2C86.9,75.8,83.7,72.6,79.8,72.6 M79.8,62.5c9.5,0,17.3,7.7,17.3,17.3S89.3,97,79.8,97s-17.3-7.7-17.3-17.3S70.2,62.5,79.8,62.5z"/> </symbol><symbol id="icon-tags" viewBox="0 0 240 240"> <title>icon tags</title> <path d="M229.9,133.6l-73.4,73.4c-6.7,6.7-17.7,6.7-24.4,0l-0.6-0.6l8.1-8.1l0.6,0.6c2.2,2.2,5.9,2.2,8.1,0l73.4-73.4c2.2-2.2,2.2-5.9,0-8.1l-76.1-76.1c-1.1-1.1-2.5-1.7-4.1-1.7h-7L123.1,28h18.5c4.6,0,9,1.8,12.2,5.1l76.1,76.1C236.7,115.9,236.7,126.9,229.9,133.6z M95.6,39.5H22.3c-3.2,0-5.8,2.6-5.8,5.8v73.4c0,1.5,0.6,3,1.7,4.1l76.1,76.1c2.2,2.2,5.9,2.2,8.1,0l73.4-73.4c2.2-2.2,2.2-5.9,0-8.1L99.7,41.2C98.6,40.1,97.1,39.5,95.6,39.5 M95.6,28c4.6,0,9,1.8,12.2,5.1l76.1,76.1c6.7,6.7,6.7,17.7,0,24.4l-73.4,73.4c-6.7,6.7-17.7,6.7-24.4,0l-76.1-76.1c-3.2-3.2-5.1-7.6-5.1-12.2V45.2C5,35.7,12.7,28,22.3,28H95.6z M56.8,72.6c-4,0-7.2,3.2-7.2,7.2c0,4,3.2,7.2,7.2,7.2s7.2-3.2,7.2-7.2C63.9,75.8,60.7,72.6,56.8,72.6M56.8,62.5c9.5,0,17.3,7.7,17.3,17.3S66.3,97,56.8,97s-17.3-7.7-17.3-17.3S47.2,62.5,56.8,62.5z"/> </symbol><symbol id="icon-tasks" viewBox="0 0 240 240"> <title>icon tasks</title> <path d="M232.3,63.4H94c-1.5,0-2.7-1.2-2.7-2.7V49.9c0-1.5,1.2-2.7,2.7-2.7h138.3c1.5,0,2.7,1.2,2.7,2.7v10.8C235,62.2,233.8,63.4,232.3,63.4z M235,132.6v-10.8c0-1.5-1.2-2.7-2.7-2.7H94c-1.5,0-2.7,1.2-2.7,2.7v10.8c0,1.5,1.2,2.7,2.7,2.7h138.3C233.8,135.3,235,134.1,235,132.6z M235,204.4v-10.8c0-1.5-1.2-2.7-2.7-2.7H94c-1.5,0-2.7,1.2-2.7,2.7v10.8c0,1.5,1.2,2.7,2.7,2.7h138.3C233.8,207.1,235,205.9,235,204.4z M35.8,181.1c-8.9,0-16.2,7.2-16.2,16.2s7.2,16.2,16.2,16.2s16-7.2,16-16.2S44.7,181.1,35.8,181.1z M81.8,31.5l-3.3-3.3c-2.1-2.1-5.5-2.1-7.6,0L35.5,63.7L18.2,46.5c-2.1-2.1-5.5-2.1-7.6,0l-4,4c-2.1,2.1-2.1,5.5,0,7.6L31,82.5c2.1,2.1,5.5,2.1,7.6,0l0.1-0.1l43.1-43.2C83.9,37,83.9,33.6,81.8,31.5L81.8,31.5z M82,103.3l-3.3-3.3c-2.1-2.1-5.5-2.1-7.6,0l-35.4,35.6l-17.2-17.2c-2.1-2.1-5.5-2.1-7.6,0l-3.9,4c-2.1,2.1-2.1,5.5,0,7.6l24.4,24.4c2.1,2.1,5.5,2.1,7.6,0l-0.1-0.1L82,111C84.1,108.9,84.1,105.5,82,103.3L82,103.3z"/> </symbol><symbol id="icon-tg" viewBox="0 0 240 240"> <title>icon tg</title> <path d="M234.3,41.1l-34.7,163.7c-2.6,11.6-9.4,14.4-19.2,9l-52.9-39l-25.5,24.5c-2.8,2.8-5.2,5.2-10.6,5.2l3.8-53.9l98-88.6c4.3-3.8-0.9-5.9-6.6-2.1L65.5,136.3L13.3,120c-11.3-3.5-11.6-11.3,2.4-16.8l204-78.6C229.2,21,237.4,26.7,234.3,41.1z"/> </symbol><symbol id="icon-toprated" viewBox="0 0 240 240"> <title>icon toprated</title> <path d="M152.9,73.2l-20-2.9l-9-18.2c-1.6-3.2-6.3-3.3-7.9,0l-9,18.2l-20,2.9c-3.6,0.5-5,5-2.4,7.5l14.5,14.1l-3.4,20 c-0.6,3.6,3.2,6.3,6.4,4.6l17.9-9.4l17.9,9.4c3.2,1.7,7-1,6.4-4.6l-3.4-20l14.5-14.1C158,78.2,156.5,73.8,152.9,73.2L152.9,73.2z M128.9,91l2.1,12.2L120,97.4l-11,5.7l2.1-12.2l-8.9-8.6l12.3-1.8l5.5-11.1l5.5,11.1l12.3,1.8L128.9,91L128.9,91z M183.9,43.3V22.6 c0-2.6-2.2-4.8-4.8-4.8H60.9c-2.6,0-4.8,2.2-4.8,4.8v20.8H9.8c-2.6,0-4.8,2.2-4.8,4.8v24.6c0,24.8,27.2,53.7,64.2,59.1 c11.7,24.2,29.4,36.1,44.4,38.7v38.9H79.3c-5.8,0-10.4,4.7-10.4,10.4c0,1.3,1.1,2.4,2.4,2.4h97.4c1.3,0,2.4-1,2.4-2.4 c0-5.8-4.6-10.4-10.4-10.4h-34.3v-38.9c15.1-2.6,32.7-14.5,44.4-38.7c37-5.5,64.2-34.4,64.2-59.1V48.1c0-2.6-2.2-4.8-4.8-4.8H183.9z M17.8,72.7V56.1h38.3v9.6c0,20.7,2.8,37.9,7.4,52C36.1,110.6,17.8,88.9,17.8,72.7z M120,158.3c-28.8,0-51.1-41.5-51.1-92.6V30.6 h102.2v35.1C171.1,116.8,148.8,158.3,120,158.3z M222.2,72.7c0,16.1-18.4,37.9-45.7,45c4.6-14.1,7.4-31.3,7.4-52v-9.6h38.3V72.7z"/> </symbol><symbol id="icon-trash" viewBox="0 0 240 240"> <title>icon trash</title> <path d="M19.4,42.7V30.2c0-6,4.8-10.8,10.8-10.8h50.3l4.2-8.4c1.8-3.7,5.5-6,9.6-6h51.3c4.1,0,7.8,2.3,9.7,6l4.2,8.4h50.3c6,0,10.8,4.8,10.8,10.8v12.6c0,3-2.4,5.4-5.4,5.4H24.8C21.8,48.1,19.4,45.7,19.4,42.7z M205.9,68.2l-9.2,146.6c-0.7,11.4-10.2,20.2-21.5,20.2H64.8c-11.4,0-20.8-8.8-21.5-20.2L34.1,68.2c-0.2-3.1,2.3-5.7,5.4-5.7h161C203.6,62.5,206.1,65.1,205.9,68.2L205.9,68.2z"/> </symbol><symbol id="icon-tw" viewBox="0 0 240 240"> <title>icon tw</title> <path d="M211.4,73.2c0.1,2,0.1,4.1,0.1,6.1c0,62.3-47.4,134.1-134.1,134.1c-26.7,0-51.5-7.7-72.4-21.2c3.8,0.4,7.4,0.6,11.4,0.6c22,0,42.3-7.4,58.5-20.1c-20.7-0.4-38.1-14-44.1-32.7c2.9,0.4,5.8,0.7,8.9,0.7c4.2,0,8.5-0.6,12.4-1.6c-21.6-4.4-37.8-23.4-37.8-46.3v-0.6c6.3,3.5,13.6,5.7,21.3,6c-12.7-8.5-21-22.9-21-39.3c0-8.8,2.3-16.8,6.4-23.8c23.2,28.6,58.1,47.3,97.2,49.3c-0.7-3.5-1.2-7.2-1.2-10.8c0-26,21-47.1,47.1-47.1c13.6,0,25.8,5.7,34.4,14.9c10.7-2,20.9-6,29.9-11.4c-3.5,10.9-10.9,20.1-20.7,26c9.5-1,18.7-3.6,27.1-7.3C228.6,58.1,220.6,66.4,211.4,73.2L211.4,73.2z"/> </symbol><symbol id="icon-user" viewBox="0 0 240 240"> <title>icon user</title> <path d="M120,120c31.8,0,57.5-25.7,57.5-57.5S151.8,5,120,5S62.5,30.7,62.5,62.5S88.2,120,120,120z M163,134.6l-21.5,86l-14.4-61.1l14.4-25.2H98.4l14.4,25.2l-14.4,61.1l-21.5-86c-32,1.5-57.6,27.7-57.6,60.1v18.7c0,11.9,9.7,21.6,21.6,21.6h158.1c11.9,0,21.6-9.7,21.6-21.6v-18.7C220.6,162.4,195.1,136.2,163,134.6L163,134.6z"/> </symbol><symbol id="icon-video-hd" viewBox="0 0 240 240"> <title>icon video hd</title> <path d="M222.2,56.1c-2.5,0-5,0.7-7.3,2.3l-43.8,27.9V62.4c0-10.5-9.3-19.1-20.7-19.1H25.7C14.3,43.3,5,51.9,5,62.4v115.2c0,10.5,9.3,19.1,20.7,19.1h124.8c11.4,0,20.7-8.5,20.7-19.1v-23.9l43.8,27.9c2.3,1.6,4.8,2.3,7.3,2.3c6.6,0,12.8-5.2,12.8-12.6V68.7C235,61.3,228.8,56.1,222.2,56.1L222.2,56.1z M158.4,177.6c0,3.4-3.6,6.3-7.9,6.3H25.7c-4.3,0-7.9-2.9-7.9-6.3V62.4c0-3.4,3.6-6.3,7.9-6.3h124.8c4.3,0,7.9,2.9,7.9,6.3V177.6L158.4,177.6z M222.3,171.3l-0.5-0.5l-50.6-32.3v-37.1l51.1-32.5V171.3z"/> <path d="M36.3,98.2h9.3v12H74v-12h9.3V144H74v-25.9H45.5V144h-9.3V98.2z"/> <path d="M96.3,98.2h16.8c4.9,0,9.2,0.5,12.8,1.6s6.6,2.6,9,4.5s4.1,4.3,5.3,7.1c1.2,2.8,1.7,6,1.7,9.4c0,3.3-0.6,6.4-1.7,9.2c-1.2,2.8-2.9,5.3-5.3,7.3s-5.4,3.7-9,4.8s-7.9,1.7-12.8,1.7l-16.8,0V98.2z M115.4,136c2.8,0,5.2-0.4,7.3-1.1s3.8-1.7,5.2-3s2.4-2.9,3.1-4.7s1.1-3.9,1.1-6.2c0-2.2-0.4-4.3-1.1-6.1c-0.7-1.8-1.8-3.3-3.1-4.6s-3.1-2.2-5.2-2.9c-2.1-0.7-4.5-1-7.3-1h-9.8V136H115.4z"/> </symbol><symbol id="icon-video" viewBox="0 0 240 240"> <title>icon video</title> <path d="M222.2,56.1c-2.5,0-5,0.7-7.3,2.3l-43.8,27.9V62.4c0-10.5-9.3-19.1-20.7-19.1H25.7C14.3,43.3,5,51.9,5,62.4v115.2c0,10.5,9.3,19.1,20.7,19.1h124.8c11.4,0,20.7-8.5,20.7-19.1v-23.9l43.8,27.9c2.3,1.6,4.8,2.3,7.3,2.3c6.6,0,12.8-5.2,12.8-12.6V68.7C235,61.3,228.8,56.1,222.2,56.1L222.2,56.1z M158.4,177.6c0,3.4-3.6,6.3-7.9,6.3H25.7c-4.3,0-7.9-2.9-7.9-6.3V62.4c0-3.4,3.6-6.3,7.9-6.3h124.8c4.3,0,7.9,2.9,7.9,6.3V177.6L158.4,177.6z M222.3,171.3l-0.5-0.5l-50.6-32.3v-37.1l51.1-32.5V171.3z"/> </symbol><symbol id="icon-vk" viewBox="0 0 240 240"> <title>icon vk</title> <path d="M229.8,60.9c1.6-5.3,0-9.3-7.6-9.3H197c-6.4,0-9.4,3.4-10.9,7.1c0,0-12.8,31.2-30.9,51.5c-5.8,5.8-8.5,7.7-11.7,7.7c-1.6,0-4-1.9-4-7.2V60.9c0-6.4-1.8-9.3-7.1-9.3H92.8c-4,0-6.4,3-6.4,5.8c0,6.1,9.1,7.5,10,24.6v37.1c0,8.1-1.5,9.6-4.7,9.6c-8.5,0-29.3-31.3-41.6-67.2c-2.5-7-4.9-9.8-11.4-9.8H13.6c-7.2,0-8.6,3.4-8.6,7.1c0,6.7,8.5,39.8,39.8,83.5c20.8,29.8,50.1,46,76.7,46c16,0,18-3.6,18-9.8c0-28.5-1.5-31.2,6.6-31.2c3.7,0,10.1,1.9,25.1,16.3c17.1,17.1,19.9,24.7,29.5,24.7h25.1c7.2,0,10.8-3.6,8.7-10.7c-4.8-14.9-37.1-45.6-38.6-47.6c-3.7-4.8-2.6-6.9,0-11.2C195.9,118.8,226.6,75.6,229.8,60.9L229.8,60.9z"/> </symbol><symbol id="icon-yt" viewBox="0 0 240 240"> <title>icon yt</title> <path d="M230.2,64.4c-2.6-10-10.4-17.8-20.3-20.5c-17.9-4.8-89.9-4.8-89.9-4.8s-71.9,0-89.9,4.8c-9.9,2.7-17.7,10.5-20.3,20.5C5,82.5,5,120.2,5,120.2s0,37.7,4.8,55.7c2.6,10,10.4,17.5,20.3,20.1c17.9,4.8,89.9,4.8,89.9,4.8s71.9,0,89.9-4.8c9.9-2.7,17.7-10.2,20.3-20.1c4.8-18.1,4.8-55.7,4.8-55.7S235,82.5,230.2,64.4z M96.5,154.4V86l60.1,34.2L96.5,154.4L96.5,154.4z"/> </symbol></svg>